<svg width="885" height="512" viewBox="0 0 885 512" fill="none" xmlns="http://www.w3.org/2000/svg">
<mask id="mask0_67_311" style="mask-type:luminance" maskUnits="userSpaceOnUse" x="0" y="99" width="748" height="413">
<path d="M747.995 99H0.102051V511.278H747.995V99Z" fill="white"/>
</mask>
<g mask="url(#mask0_67_311)">
<path d="M473.252 510.229C473.252 510.229 461.789 490.195 496.178 475.17L473.252 510.229Z" fill="#E6E6E6"/>
<path d="M459.154 509.864C459.154 509.864 455.657 495.585 428.592 495.708L459.154 509.864Z" fill="#E6E6E6"/>
<path d="M717.707 510.229C717.707 510.229 702.562 483.761 747.995 463.911L717.707 510.229Z" fill="#E6E6E6"/>
<path d="M699.082 509.748C699.082 509.748 694.462 490.883 658.705 491.045L699.082 509.748Z" fill="#E6E6E6"/>
<path d="M434.454 213.601L419.498 207.961L420.617 207.538L435.573 213.179L434.454 213.601Z" fill="#CBCBCB"/>
<path d="M421.408 213.601L420.289 213.179L435.245 207.538L436.364 207.961L421.408 213.601Z" fill="#CBCBCB"/>
<path d="M310.09 169.88L309.369 170.88L313.593 172.417L314.314 171.417L310.09 169.88Z" fill="#CBCBCB"/>
<path d="M397.689 203.013L389.279 199.953L390.001 198.953L398.41 202.013L397.689 203.013ZM380.87 196.894L372.46 193.834L373.182 192.834L381.591 195.894L380.87 196.894ZM364.05 190.774L355.641 187.715L356.363 186.715L364.772 189.774L364.05 190.774ZM347.231 184.655L338.822 181.596L339.543 180.596L347.953 183.655L347.231 184.655ZM330.412 178.536L322.003 175.477L322.724 174.477L331.134 177.536L330.412 178.536Z" fill="#CBCBCB"/>
<path d="M406.82 205.072L406.099 206.072L410.323 207.609L411.044 206.609L406.82 205.072Z" fill="#CBCBCB"/>
<path d="M87.8066 245.097C87.8066 245.448 87.7906 245.796 87.7586 246.141C87.579 248.132 86.8708 250.08 85.6714 251.883C85.6621 251.898 85.6512 251.913 85.6419 251.927C85.5861 252.011 85.5288 252.094 85.4699 252.177C85.1132 252.687 84.7174 253.183 84.2845 253.662C82.3068 255.863 79.5961 257.684 76.3919 258.964C73.1878 260.244 69.5888 260.944 65.913 261.002L66.1346 270.05L69.0245 268.97L69.5405 269.666L66.1563 270.932L66.57 287.736L66.5747 287.96L64.3402 288.313L64.3448 288.088L65.0483 261.004C62.0897 260.973 59.1689 260.526 56.4557 259.688C53.7424 258.85 51.2907 257.637 49.2429 256.121C49.1019 256.018 48.9624 255.911 48.8261 255.805L48.8106 255.793C47.1043 254.472 45.7245 252.956 44.729 251.309C44.7508 251.326 44.774 251.343 44.7957 251.36C42.546 247.625 42.3934 243.421 44.3692 239.608C46.345 235.796 50.2995 232.664 55.4225 230.855C55.5 230.828 55.579 230.801 55.6565 230.774C60.724 229.041 66.5236 228.723 71.9058 229.883C77.288 231.043 81.8599 233.597 84.7153 237.037C84.8517 237.2 84.9834 237.366 85.1104 237.533C86.8841 239.855 87.811 242.456 87.8066 245.097Z" fill="#E5E5E5"/>
<path d="M84.7903 251.936C101.011 251.936 114.16 242.6 114.16 231.083C114.16 219.567 101.011 210.23 84.7903 210.23C68.5696 210.23 55.4202 219.567 55.4202 231.083C55.4202 242.6 68.5696 251.936 84.7903 251.936Z" fill="#E5E5E5"/>
<path opacity="0.2" d="M63.1044 217.155C60.3648 221.705 59.9931 226.799 62.0559 231.525C64.1186 236.252 68.4812 240.303 74.3642 242.956C80.2472 245.609 87.2672 246.691 94.1698 246.007C101.072 245.324 107.408 242.92 112.044 239.225C110.37 242.005 107.865 244.493 104.703 246.517C101.541 248.542 97.7961 250.054 93.729 250.948C89.6619 251.843 85.3694 252.1 81.1489 251.7C76.9285 251.3 72.8809 250.253 69.2868 248.632C65.6926 247.011 62.6377 244.855 60.3338 242.313C58.0298 239.77 56.5319 236.903 55.9439 233.909C55.3558 230.915 55.6916 227.865 56.928 224.973C58.1644 222.08 60.2719 219.412 63.1044 217.155Z" fill="black"/>
<path d="M86.3785 289.175L83.3796 288.577L83.3859 288.348L84.2846 253.662L84.3295 251.932L84.3304 251.882L84.4877 245.822L84.715 237.038L84.8696 231.083H84.9523L85.1104 237.533L85.3162 245.929L85.4636 251.886V251.93L85.4699 252.176V252.177L85.7548 263.789L85.7844 264.943L86.3731 288.944L86.3785 289.175Z" fill="#3F3D56"/>
<path d="M89.5422 262.373L84.6873 264.188L85.3639 265.1L90.2188 263.286L89.5422 262.373Z" fill="#3F3D56"/>
<path d="M465.514 163.596C428.444 162.04 391.262 162.446 354.276 164.81C336.45 165.954 318.341 167.19 300.844 169.951C286.751 172.175 270.394 175.933 261.613 184.687C259.774 186.451 258.534 188.493 257.992 190.653C257.449 192.814 257.618 195.034 258.485 197.141C260.578 202.131 265.787 206.285 271.334 209.539C284.1 217.027 299.94 221.384 314.089 227.333C339.923 238.195 363.566 252.836 378.742 271.433C385.42 279.617 391.772 290.499 384.336 299.517C377.051 308.351 360.789 311.395 347.527 312.83C330.905 314.629 313.782 314.141 297.091 313.134C278.791 311.922 260.593 310.03 242.573 307.464C207.269 302.651 172.287 296.529 136.493 293.745C118.546 292.246 100.448 291.875 82.4083 292.635C66.1167 293.415 49.6856 295.244 34.3809 299.415C22.5873 302.629 10.0159 307.492 3.64544 315.601C-2.49538 323.418 -0.100267 332.433 6.58633 339.646C14.6317 348.324 27.1772 354.27 40.2205 358.617C55.0714 363.565 70.9558 366.773 86.8606 369.501C94.927 370.885 103.037 372.135 111.148 373.38C112.84 373.639 113.563 371.794 111.865 371.533C95.5086 369.024 79.1052 366.507 63.1552 362.874C48.3952 359.513 33.2903 355.206 21.2032 348.148C11.4247 342.438 2.12734 334.097 2.70451 324.614C3.28635 315.054 14.5835 308.379 25.6563 304.271C39.4941 299.136 55.2159 296.635 70.6214 295.328C88.2609 293.932 106.05 293.761 123.737 294.815C159.446 296.744 194.358 302.52 229.369 307.557C263.383 312.451 298.458 316.983 333.315 315.727C347.131 315.23 361.934 313.824 374.133 308.873C379.718 306.606 384.755 303.409 387.593 299.249C390.151 295.29 390.959 290.875 389.913 286.584C387.935 277.157 380.049 268.417 372.181 260.909C363.556 252.765 353.551 245.407 342.393 239C330.146 232.003 316.942 225.895 302.977 220.77C295.572 218.002 288.062 215.34 281.005 212.134C274.238 209.06 267.564 205.361 263.431 200.37C259.858 196.054 259.202 191.128 262.924 186.75C266.689 182.322 273.176 179.234 279.573 176.977C294.985 171.54 312.903 170.085 329.766 168.594C365.972 165.403 402.461 164.111 438.935 164.729C447.801 164.877 456.66 165.138 465.514 165.511C467.247 165.583 467.241 163.668 465.514 163.596Z" fill="black"/>
<path d="M441.998 102.224L447.597 99.0445C443.247 98.7038 441.46 100.388 440.729 101.721C437.33 100.719 433.631 102.033 433.631 102.033L444.834 104.92C444.269 103.848 443.285 102.913 441.998 102.224Z" fill="#3F3D56"/>
<path d="M414.822 112.291L420.422 109.111C416.072 108.77 414.284 110.455 413.553 111.788C410.154 110.786 406.455 112.099 406.455 112.099L417.658 114.987C417.093 113.915 416.109 112.98 414.822 112.291Z" fill="#3F3D56"/>
<path d="M441.998 128.23L447.597 125.05C443.247 124.709 441.46 126.394 440.729 127.727C437.33 126.725 433.631 128.038 433.631 128.038L444.834 130.926C444.269 129.854 443.285 128.919 441.998 128.23Z" fill="#3F3D56"/>
<path d="M358.052 132.941C367.37 132.941 374.923 127.578 374.923 120.962C374.923 114.347 367.37 108.984 358.052 108.984C348.735 108.984 341.182 114.347 341.182 120.962C341.182 127.578 348.735 132.941 358.052 132.941Z" fill="#FF6583"/>
<path d="M410.956 157.873H328.193C328.09 157.874 327.986 157.868 327.884 157.855L367.028 109.719C367.266 109.42 367.613 109.17 368.032 108.996C368.451 108.823 368.928 108.731 369.413 108.731C369.898 108.731 370.374 108.823 370.793 108.996C371.212 109.17 371.559 109.42 371.798 109.719L398.067 142.021L399.325 143.567L410.956 157.873Z" fill="#999999"/>
<path d="M457.034 157.873H385.453L399.323 143.568L400.321 142.537L418.395 123.896C418.715 123.61 419.116 123.376 419.571 123.208C420.027 123.04 420.527 122.942 421.039 122.92C421.552 122.898 422.065 122.954 422.545 123.082C423.026 123.21 423.463 123.409 423.828 123.665C423.922 123.738 424.009 123.815 424.088 123.896L457.034 157.873Z" fill="#999999"/>
<path d="M338.956 268.273C346.801 271.057 351.577 274.733 351.577 278.766C351.577 287.453 329.437 294.496 302.125 294.496C290.251 294.496 279.357 293.163 270.833 290.945C279.887 294.158 293.03 296.181 307.664 296.181C334.975 296.181 357.116 289.139 357.116 280.451C357.116 275.541 350.039 271.158 338.956 268.273Z" fill="#F1F1F1"/>
<path d="M356.406 274.24C365.258 277.381 370.647 281.53 370.647 286.081C370.647 295.883 345.664 303.83 314.846 303.83C301.448 303.83 289.155 302.326 279.536 299.823C289.753 303.448 304.584 305.731 321.096 305.731C351.914 305.731 376.896 297.785 376.896 287.982C376.896 282.442 368.911 277.495 356.406 274.24Z" fill="#F1F1F1"/>
<path d="M332.279 270.901C337.806 272.863 341.17 275.453 341.17 278.294C341.17 284.414 325.572 289.376 306.33 289.376C298.834 289.445 291.377 288.599 284.284 286.874C290.663 289.138 299.923 290.563 310.232 290.563C329.474 290.563 345.073 285.602 345.073 279.481C345.073 276.022 340.087 272.934 332.279 270.901Z" fill="#F1F1F1"/>
<path d="M254.624 269.778C254.624 269.778 255.839 282.381 290.653 282.381C325.467 282.381 335.861 269.778 335.861 269.778H254.624Z" fill="#3F3D56"/>
<path d="M304.039 236.709C299.013 233.998 292.705 232.773 286.435 233.29C292.038 234.249 296.986 236.579 300.411 239.87C303.836 243.161 305.519 247.203 305.165 251.287C304.81 255.372 302.441 259.237 298.473 262.205C294.505 265.172 289.192 267.053 283.466 267.517C288.943 268.455 294.709 268.026 299.793 266.302C304.878 264.578 308.971 261.663 311.385 258.049C313.799 254.434 314.386 250.339 313.049 246.453C311.711 242.567 308.529 239.126 304.039 236.709Z" fill="#3F3D56"/>
<path d="M292.63 231.016H290.257V271.132H292.63V231.016Z" fill="#3F3D56"/>
<path d="M448.628 201.209L448.615 201.194L448.583 200.214L456.02 192.548L448.592 199.481L448.565 199.688L448.311 191.853L454.734 183.905L448.293 190.476L448.36 174.243V174.189L448.358 174.243L447.931 187.036L442.078 181.839L447.913 188.138L447.785 195.147L442.398 188.307L447.765 196.177L447.693 200.074L447.497 210.871L447.483 211.677C447.979 211.68 448.47 211.674 448.956 211.66L448.619 201.289L448.628 201.209Z" fill="#CBCBCB"/>
<path d="M413.023 204.581L413.01 204.565L412.978 203.585L420.414 195.92L412.987 202.852L412.96 203.059L412.706 195.224L419.129 187.276L412.688 193.847L412.755 177.615V177.561L412.753 177.614L412.326 190.407L406.472 185.21L412.307 191.509L412.179 198.518L406.793 191.678L412.16 199.548L412.088 203.445L411.892 214.242L411.877 215.048C412.373 215.051 412.864 215.045 413.35 215.031L413.014 204.661L413.023 204.581Z" fill="#CBCBCB"/>
<path d="M430.429 193.907L430.417 193.891L430.385 192.911L437.821 185.246L430.393 192.178L430.367 192.385L430.113 184.55L436.536 176.602L430.094 183.173L430.162 166.941L430.161 166.887L430.159 166.94L429.733 179.733L423.879 174.537L429.714 180.835L429.586 187.844L424.199 181.004L429.566 188.874L429.495 192.771L429.298 203.568L429.284 204.375C429.78 204.377 430.271 204.371 430.757 204.357L430.42 193.987L430.429 193.907Z" fill="#CBCBCB"/>
<path d="M136.363 380.446C141.607 380.446 145.858 377.428 145.858 373.705C145.858 369.982 141.607 366.964 136.363 366.964C131.119 366.964 126.868 369.982 126.868 373.705C126.868 377.428 131.119 380.446 136.363 380.446Z" fill="#999999"/>
<path d="M643.159 498.143L634.369 500.461L617.589 477.492L630.562 474.07L643.159 498.143Z" fill="#FFB7B7"/>
<path d="M648.566 503.601L620.223 511.078L620.09 510.824C619.003 508.746 619.123 506.448 620.423 504.433C621.723 502.418 624.097 500.853 627.023 500.081L644.334 495.514L648.566 503.601Z" fill="#2F2E41"/>
<path d="M556.654 504.624H547.277L542.815 478.944H556.655L556.654 504.624Z" fill="#FFB7B7"/>
<path d="M558.281 511.077L528.044 511.076V510.805C528.045 508.589 529.285 506.464 531.492 504.897C533.699 503.33 536.692 502.449 539.813 502.449L558.281 502.45V511.077Z" fill="#2F2E41"/>
<path d="M599.586 326.522L596.527 322.177L570.521 331.409L571.286 335.211L566.314 339.827C566.314 339.827 557.9 343.085 559.43 353.946L560.96 364.264L562.872 377.569L549.487 410.424L542.603 453.869L537.631 488.897L561.725 488.082L583.906 431.061L622.915 492.426L649.685 487.539L612.971 426.716L608.382 401.192C608.382 401.192 611.442 387.616 596.909 378.384L599.204 373.496V367.474L606.852 338.741L599.586 326.522Z" fill="#2F2E41"/>
<path opacity="0.2" d="M600.301 388.615L583.474 430.974L584.339 431.147L601.166 388.788L600.301 388.615Z" fill="black"/>
<path d="M598.821 377.569H561.342V380.285H598.821V377.569Z" fill="#3F3D56"/>
<path d="M561.342 381.914C562.187 381.914 562.871 380.698 562.871 379.199C562.871 377.699 562.187 376.483 561.342 376.483C560.497 376.483 559.812 377.699 559.812 379.199C559.812 380.698 560.497 381.914 561.342 381.914Z" fill="#3F3D56"/>
<path d="M588.023 319.498C597.903 315.664 601.534 306.868 596.133 299.854C590.732 292.839 578.344 290.261 568.464 294.095C558.584 297.93 554.953 306.725 560.354 313.74C565.755 320.755 578.143 323.333 588.023 319.498Z" fill="#FFB7B7"/>
<path d="M609.442 301.629C619.404 301.629 627.479 295.896 627.479 288.823C627.479 281.751 619.404 276.017 609.442 276.017C599.481 276.017 591.406 281.751 591.406 288.823C591.406 295.896 599.481 301.629 609.442 301.629Z" fill="#2F2E41"/>
<path d="M632.331 287.451C633.043 289.148 633.251 290.931 632.943 292.688C632.635 294.445 631.817 296.137 630.541 297.658C629.265 299.179 627.559 300.496 625.53 301.525C623.501 302.554 621.194 303.274 618.754 303.638C616.314 304.002 613.794 304.003 611.353 303.641C608.913 303.279 606.604 302.561 604.574 301.534C602.543 300.506 600.835 299.191 599.557 297.671C598.278 296.151 597.458 294.459 597.146 292.703C598.439 295.784 601.315 298.407 605.206 300.051C609.096 301.696 613.714 302.242 618.145 301.58C622.575 300.919 626.494 299.099 629.122 296.481C631.75 293.864 632.896 290.641 632.331 287.451Z" fill="#2F2E41"/>
<path d="M561.075 302.778C560.546 306.088 561.569 309.43 563.986 312.285C566.403 315.14 570.079 317.35 574.445 318.572C578.81 319.793 583.621 319.959 588.132 319.042C592.643 318.125 596.602 316.178 599.397 313.502C602.191 310.825 603.664 307.569 603.587 304.238C603.51 300.907 601.888 297.687 598.973 295.077C596.057 292.467 592.01 290.612 587.459 289.801C582.908 288.989 578.108 289.266 573.801 290.588C570.239 288.549 565.823 289.181 562.233 291.333C558.173 293.767 556.968 295.439 553.819 299.441C556.915 299.75 557.979 302.469 561.075 302.778Z" fill="#2F2E41"/>
<path d="M636.019 346.31C635.791 350.6 635.338 359.044 635.338 359.475C635.338 359.929 626.322 373.184 622.427 378.888V378.891C622.15 379.293 621.901 379.658 621.681 379.979C621.38 380.422 620.906 380.794 620.316 381.051C619.727 381.308 619.045 381.44 618.353 381.431L601.33 381.214C600.395 381.203 599.501 380.935 598.837 380.467C598.173 379.999 597.789 379.367 597.765 378.703L595.867 325.532C595.86 325.356 595.903 325.182 595.994 325.019C596.084 324.855 596.219 324.706 596.391 324.581C596.564 324.455 596.77 324.355 596.997 324.287C597.225 324.219 597.469 324.184 597.716 324.184H619.669C620.596 324.184 621.504 324.37 622.29 324.72C623.075 325.07 623.706 325.57 624.11 326.162L634.646 341.638C635.634 343.093 636.105 344.697 636.019 346.31Z" fill="#999999"/>
<path d="M597.469 375.054C593.101 373.175 589.176 370.82 585.838 368.075C578.081 361.882 573.364 354.069 572.395 345.809C571.529 338.743 573.504 333.49 578.264 330.197C584.315 326.011 592.551 326.62 592.899 326.648L593.268 326.677L598.848 330.03L597.269 331.355L592.276 328.355C590.748 328.301 584.508 328.289 579.95 331.454C575.755 334.368 574.032 339.147 574.83 345.659C575.753 353.523 580.233 360.964 587.601 366.871C590.78 369.482 594.506 371.729 598.649 373.534L597.469 375.054Z" fill="#999999"/>
<path d="M629.145 354.854L599.402 359.191L599.566 359.758L629.309 355.421L629.145 354.854Z" fill="#3F3D56"/>
<path d="M609.541 324.172L608.727 324.195L610.659 357.797L611.473 357.773L609.541 324.172Z" fill="#3F3D56"/>
<path d="M636.018 346.31C635.79 350.6 635.338 359.044 635.338 359.475C635.338 359.929 626.322 373.184 622.427 378.888L629.687 348.957C629.968 347.805 630.674 346.727 631.735 345.833C632.795 344.939 634.171 344.261 635.721 343.869C635.965 344.67 636.065 345.491 636.018 346.31Z" fill="#3F3D56"/>
<path d="M591.411 409.038C592.054 408.45 592.508 407.769 592.74 407.043C592.972 406.317 592.977 405.563 592.754 404.836C592.532 404.108 592.087 403.424 591.452 402.832C590.817 402.239 590.007 401.753 589.079 401.407L590.554 389.818L580.853 387.463L579.093 403.851C578.378 404.996 578.28 406.289 578.817 407.483C579.354 408.677 580.489 409.689 582.007 410.329C583.526 410.968 585.322 411.19 587.055 410.952C588.788 410.714 590.338 410.033 591.411 409.038Z" fill="#FFB7B7"/>
<path d="M592.678 397.824L575.489 397.381L576.216 338.525C576.204 336.859 576.929 335.233 578.289 333.876C579.65 332.519 581.576 331.5 583.797 330.963C585.872 330.473 588.114 330.472 590.19 330.959C592.545 331.525 594.567 332.631 595.938 334.104C597.308 335.576 597.949 337.331 597.76 339.091L592.678 397.824Z" fill="#CBCBCB"/>
<path d="M743.475 511.278H401.002C400.764 511.278 400.535 511.211 400.367 511.091C400.198 510.971 400.104 510.809 400.104 510.64C400.104 510.47 400.198 510.308 400.367 510.188C400.535 510.069 400.764 510.001 401.002 510.001H743.475C743.713 510.001 743.942 510.069 744.111 510.188C744.279 510.308 744.374 510.47 744.374 510.64C744.374 510.809 744.279 510.971 744.111 511.091C743.942 511.211 743.713 511.278 743.475 511.278Z" fill="#CBCBCB"/>
<mask id="mask1_67_311" style="mask-type:luminance" maskUnits="userSpaceOnUse" x="56" y="140" width="314" height="293">
<path d="M369.352 140.353H56.5063V432.134H369.352V140.353Z" fill="white"/>
</mask>
<g mask="url(#mask1_67_311)">
<path d="M77.8214 414.018C76.3175 414.018 74.8104 414.089 73.3386 414.233L73.1244 414.254C63.3621 415.247 56.2214 421.01 56.5151 427.658L56.5719 428.86C56.6093 429.62 56.6492 430.437 56.682 431.344C56.6998 431.791 57.2298 432.134 57.8893 432.134H298.019C314.949 432.016 331.818 431.867 348.154 431.691C351.22 431.699 354.283 431.516 357.327 431.144C361.866 430.526 365.017 429.3 366.961 427.397C369.377 425.037 369.454 422.064 369.308 418.706C369.01 411.926 368.715 404.803 368.42 397.702C368.16 391.443 367.901 385.201 367.642 379.225C367.482 375.679 367.126 372.548 364.382 370.156C361.407 367.568 355.983 366.257 348.259 366.257C348.166 366.257 348.073 366.257 347.979 366.257C323.772 366.356 299.787 375.936 288.296 390.095C286.973 391.725 285.74 393.471 284.547 395.159C282.804 397.751 280.88 400.216 278.79 402.537C277.629 403.788 276.356 404.931 274.986 405.95C274.893 406.024 274.786 406.103 274.673 406.179C274.415 406.373 274.145 406.559 273.882 406.726C272.359 407.741 270.733 408.592 269.031 409.264L268.861 409.33C268.733 409.382 268.594 409.435 268.456 409.483C267.475 409.845 266.475 410.153 265.46 410.405C261.08 411.516 256.099 411.782 250.656 411.195C245.63 410.636 240.688 409.477 235.937 407.743C230.897 405.91 226.18 403.625 221.618 401.414C219.614 400.443 217.541 399.439 215.472 398.488C215.082 398.309 214.7 398.134 214.311 397.959C211.783 396.825 209.491 395.888 207.304 395.096C201.932 393.134 196.312 391.936 190.607 391.536C184.586 391.157 179.281 391.872 174.842 393.658C173.609 394.153 172.416 394.744 171.276 395.426C166.018 398.569 162.776 403.207 159.642 407.692C155.743 413.271 151.711 419.041 143.749 422.032C134.562 425.486 121.153 424.051 111.665 421.555C108.682 420.771 105.703 419.868 102.822 418.994C101.658 418.642 100.494 418.291 99.3285 417.943C97.0386 417.263 95.1645 416.742 93.4307 416.301L92.8823 416.161C92.5773 416.085 92.2719 416.009 91.9611 415.936C89.9016 415.438 87.9839 415.047 86.0954 414.739L85.6486 414.664C84.7529 414.528 83.9154 414.415 83.0936 414.32L82.7656 414.282C81.1235 414.105 79.473 414.016 77.8214 414.018Z" fill="#F2F2F2"/>
<path d="M208.591 284.146C207.868 284.25 207.131 284.194 206.432 283.983C205.732 283.772 205.088 283.41 204.543 282.923C203.999 282.436 203.568 281.836 203.281 281.164C202.993 280.493 202.857 279.766 202.881 279.036L186.303 272.667L193.809 267.299L208.401 274.17C209.625 274.292 210.762 274.858 211.597 275.762C212.431 276.666 212.905 277.844 212.928 279.074C212.952 280.303 212.523 281.499 211.724 282.434C210.924 283.369 209.809 283.978 208.59 284.146H208.591Z" fill="#FFB7B7"/>
<path d="M199.118 279.575L201.706 270.447L201.579 270.36L177.333 253.894L156.375 232.87L144.166 237.746L144.967 241.61L145.02 241.657L172.886 266.61L172.911 266.622L199.118 279.575Z" fill="#3F3D56"/>
<path d="M174.28 300.425L136.757 295.167L140.059 272.148H167.684L174.28 300.425Z" fill="#FFB6B6"/>
<path d="M110.522 413.142L118.22 414.93L128.782 386.1L117.422 383.46L110.522 413.142Z" fill="#FFB6B6"/>
<path d="M103.361 425.53L108.88 426.813L111.077 421.832L112.389 427.628L127.029 431.029C127.731 431.192 128.467 431.127 129.128 430.842C129.79 430.558 130.344 430.07 130.709 429.448C131.073 428.827 131.229 428.105 131.155 427.389C131.08 426.673 130.778 425.999 130.293 425.466L120.479 414.678L121.703 409.41L109.235 407.287L103.361 425.53Z" fill="#2F2E41"/>
<path d="M158.016 417.43H165.918L169.679 386.958H158.016V417.43Z" fill="#FFB6B6"/>
<path d="M153.845 431.119H159.512L160.524 425.77L163.114 431.119H178.145C178.865 431.119 179.567 430.888 180.147 430.462C180.727 430.035 181.156 429.434 181.37 428.746C181.585 428.058 181.574 427.32 181.339 426.639C181.104 425.958 180.657 425.37 180.064 424.961L168.062 416.674V411.266L155.437 412.019L153.845 431.119Z" fill="#2F2E41"/>
<path d="M136.282 291.262L172.978 288.343C183.807 313.632 176.921 354.003 168.6 399.449L156.797 400.975L155.881 327.948L126.293 395.885L113.992 395.256L136.282 291.262Z" fill="#2F2E41"/>
<path d="M157.642 224.669V212.257C157.642 207.846 155.89 203.616 152.77 200.497C149.65 197.378 145.419 195.625 141.007 195.625C136.595 195.625 132.364 197.378 129.244 200.497C126.124 203.616 124.371 207.846 124.371 212.257C121.439 218.365 123.274 221.269 124.371 224.669C124.372 225.261 124.608 225.828 125.027 226.247C125.445 226.665 126.013 226.901 126.605 226.902H155.408C156 226.901 156.568 226.666 156.987 226.247C157.406 225.828 157.641 225.261 157.642 224.669Z" fill="#2F2E41"/>
<path d="M145.112 226.714C151.848 226.714 157.309 221.254 157.309 214.52C157.309 207.785 151.848 202.326 145.112 202.326C138.376 202.326 132.916 207.785 132.916 214.52C132.916 221.254 138.376 226.714 145.112 226.714Z" fill="#FFB7B7"/>
<path d="M161.578 213.249C161.574 209.761 160.186 206.417 157.719 203.951C155.252 201.485 151.908 200.097 148.419 200.093H145.936C142.447 200.097 139.102 201.485 136.635 203.951C134.168 206.417 132.78 209.761 132.776 213.249V213.498C134.636 214.769 136.401 214.955 138.024 213.498L139.813 208.488L140.171 213.498H142.884L143.788 210.97L143.968 213.498C147.632 216.617 154.559 215.122 161.578 213.498V213.249Z" fill="#2F2E41"/>
<path d="M138 278.877L169.054 277.695L170.79 257.385C172.129 253.667 172.15 250.473 170.854 247.897C169.74 245.78 167.867 244.162 165.61 243.366L158.815 235.161C157.941 234.106 156.844 233.259 155.602 232.68C154.36 232.101 153.006 231.806 151.636 231.814L133.979 231.935C133.554 231.679 130.972 230.367 125.881 232.573C120.359 234.966 121.642 243.278 121.655 243.361L121.668 243.44L121.729 243.493L133.472 253.382L138 278.877Z" fill="#3F3D56"/>
<path d="M279.515 243.166C259.476 265.744 199.185 270.05 159.94 311.493C146.783 271.435 165.422 202.286 183.997 175.916C192.917 163.252 206.504 154.65 221.768 152.002C237.032 149.354 252.723 152.876 265.39 161.794C291.766 180.365 300.927 219.042 279.515 243.166Z" fill="#999999"/>
<path d="M230.961 221.506C241.483 221.506 250.012 212.979 250.012 202.46C250.012 191.941 241.483 183.414 230.961 183.414C220.44 183.414 211.911 191.941 211.911 202.46C211.911 212.979 220.44 221.506 230.961 221.506Z" fill="white"/>
<path d="M143.835 332.234C150.727 332.234 156.313 326.649 156.313 319.76C156.313 312.87 150.727 307.285 143.835 307.285C136.944 307.285 131.358 312.87 131.358 319.76C131.358 326.649 136.944 332.234 143.835 332.234Z" fill="#999999"/>
<path d="M129.561 318.857C129.018 318.369 128.588 317.768 128.302 317.096C128.016 316.424 127.881 315.698 127.906 314.968C127.931 314.238 128.116 313.522 128.447 312.872C128.778 312.221 129.249 311.651 129.824 311.201L124.09 294.397L133.024 296.717L137.096 312.318C137.788 313.335 138.082 314.571 137.923 315.791C137.764 317.011 137.163 318.13 136.234 318.936C135.305 319.742 134.112 320.18 132.882 320.165C131.651 320.151 130.469 319.686 129.559 318.858L129.561 318.857Z" fill="#FFB7B7"/>
<path d="M126.999 308.661L135.668 304.798L132.755 275.485L135.468 245.926L123.894 239.682L121.442 242.773V242.843L120.142 280.221L120.149 280.249L126.999 308.661Z" fill="#3F3D56"/>
<path d="M333.69 364.26C333.084 366.532 331.493 368.424 329.571 369.803C329.257 370.028 328.936 370.237 328.61 370.434C328.509 370.492 328.409 370.555 328.305 370.609C328.192 370.676 328.079 370.739 327.966 370.797H318.929C318.766 370.467 318.607 370.133 318.449 369.803C314.575 361.666 311.856 352.886 312.319 343.943C312.503 340.474 313.232 337.055 314.479 333.813C316.961 327.351 321.49 321.758 327.72 318.943C327.874 318.872 328.037 318.801 328.196 318.734C328.146 318.913 328.096 319.089 328.046 319.269C327.377 321.676 326.905 324.133 326.633 326.616C326.608 326.808 326.588 327 326.571 327.197C325.977 333.186 326.504 339.233 328.125 345.029C328.129 345.041 328.133 345.058 328.138 345.07C328.493 346.353 328.905 347.616 329.374 348.859C329.742 349.841 330.139 350.81 330.573 351.762C332.387 355.76 334.818 360.02 333.69 364.26Z" fill="#E6E6E6"/>
<path d="M328.309 318.922C328.221 319.039 328.133 319.152 328.046 319.269C326.211 321.7 324.652 324.328 323.4 327.105C323.333 327.243 323.27 327.381 323.216 327.523C321.499 331.4 320.397 335.52 319.949 339.736C319.944 339.765 319.941 339.795 319.94 339.824C319.836 340.81 319.773 341.804 319.748 342.798C319.655 344.662 319.857 346.528 320.345 348.329C320.791 349.799 321.572 351.146 322.627 352.263C322.731 352.376 322.836 352.489 322.948 352.598C323.032 352.685 323.124 352.773 323.212 352.857C324.056 353.663 324.979 354.41 325.773 355.275C326.137 355.663 326.465 356.082 326.755 356.528C327.217 357.276 327.515 358.113 327.63 358.984C327.745 359.855 327.675 360.741 327.423 361.582C326.855 363.696 325.556 365.48 324.227 367.18C323.563 368.032 322.877 368.892 322.284 369.803C322.067 370.129 321.866 370.459 321.682 370.797H321.156C321.332 370.459 321.524 370.129 321.733 369.803C323.258 367.401 325.426 365.338 326.55 362.694C327.31 360.91 327.54 358.888 326.579 357.138C326.298 356.629 325.957 356.155 325.564 355.726C324.799 354.862 323.884 354.122 323.053 353.341C322.844 353.145 322.639 352.944 322.443 352.735C321.402 351.678 320.598 350.41 320.086 349.018C319.507 347.249 319.233 345.394 319.276 343.533C319.276 342.347 319.339 341.152 319.456 339.966C319.468 339.816 319.485 339.661 319.502 339.507C320.356 332.042 323.194 324.941 327.72 318.943C327.803 318.826 327.891 318.713 327.979 318.6C328.159 318.366 328.489 318.692 328.309 318.922Z" fill="white"/>
<path d="M319.67 340.005C318.223 339.762 316.909 339.013 315.964 337.891C315.018 336.769 314.502 335.348 314.508 333.881C314.509 333.821 314.533 333.764 314.575 333.721C314.617 333.679 314.674 333.654 314.734 333.653C314.794 333.652 314.852 333.674 314.896 333.714C314.94 333.755 314.966 333.811 314.97 333.871C314.962 335.237 315.442 336.561 316.325 337.604C317.208 338.647 318.434 339.34 319.783 339.558C320.076 339.606 319.961 340.053 319.67 340.005Z" fill="white"/>
<path d="M322.51 352.347C324.969 350.629 326.69 348.048 327.329 345.117C327.392 344.827 327.84 344.94 327.777 345.23C327.106 348.278 325.31 350.961 322.747 352.743C322.503 352.913 322.267 352.516 322.51 352.347Z" fill="white"/>
<path d="M323.261 327.056C323.801 327.267 324.385 327.34 324.961 327.269C325.536 327.198 326.085 326.985 326.558 326.65C326.8 326.477 327.035 326.875 326.795 327.046C326.271 327.414 325.664 327.648 325.028 327.728C324.393 327.808 323.747 327.731 323.148 327.503C323.09 327.487 323.04 327.448 323.009 327.396C322.978 327.344 322.968 327.282 322.981 327.223C322.996 327.164 323.034 327.113 323.087 327.082C323.139 327.051 323.202 327.041 323.261 327.056Z" fill="white"/>
<path d="M359.653 335.074C359.507 335.187 359.356 335.3 359.21 335.417C357.226 336.935 355.369 338.611 353.657 340.429C353.524 340.567 353.39 340.709 353.26 340.851L353.256 340.856C349.197 345.261 345.987 350.379 343.789 355.951L343.776 355.989C343.772 356.002 343.768 356.01 343.764 356.022C342.892 358.253 342.19 360.546 341.662 362.881C341.152 365.162 340.734 367.606 339.936 369.803C339.815 370.141 339.682 370.475 339.539 370.797H320.964C321.026 370.467 321.093 370.133 321.16 369.803C322.105 364.963 323.582 360.242 325.564 355.726C325.631 355.576 325.697 355.425 325.773 355.275C326.796 353.043 327.999 350.899 329.37 348.863V348.861L329.371 348.86L329.373 348.859H329.374C330.127 347.748 330.936 346.676 331.797 345.647C334.032 342.989 336.671 340.699 339.619 338.863C339.636 338.851 339.656 338.842 339.673 338.83C345.539 335.191 352.492 333.458 359.139 334.957H359.143C359.314 334.995 359.482 335.033 359.653 335.074Z" fill="#E6E6E6"/>
<path d="M359.632 335.296C359.49 335.334 359.348 335.375 359.21 335.417C356.282 336.254 353.455 337.412 350.783 338.872C350.649 338.943 350.515 339.018 350.382 339.093C346.688 341.154 343.335 343.773 340.442 346.858C340.44 346.86 340.438 346.863 340.438 346.866C340.404 346.9 340.367 346.937 340.337 346.971C339.669 347.689 339.025 348.437 338.415 349.206C337.222 350.639 336.261 352.25 335.566 353.98C335.035 355.422 334.848 356.968 335.019 358.495C335.031 358.65 335.052 358.8 335.073 358.955C335.09 359.076 335.106 359.197 335.127 359.322C335.403 360.997 335.879 362.677 335.746 364.385C335.664 365.26 335.398 366.109 334.966 366.874C334.533 367.639 333.943 368.304 333.235 368.825C332.753 369.198 332.238 369.525 331.697 369.803C330.923 370.202 330.117 370.534 329.286 370.797H327.644C327.866 370.734 328.083 370.672 328.304 370.609C329.09 370.387 329.862 370.118 330.615 369.803C331.045 369.623 331.464 369.416 331.868 369.185C333.548 368.22 334.948 366.741 335.24 364.765C335.495 363.036 335.002 361.307 334.709 359.615C334.659 359.322 334.613 359.034 334.588 358.746C334.389 357.281 334.51 355.79 334.943 354.377C335.545 352.614 336.443 350.966 337.601 349.506C338.317 348.556 339.081 347.643 339.89 346.77C339.991 346.658 340.095 346.545 340.204 346.432C343.158 343.325 346.569 340.687 350.319 338.608H350.323C353.111 337.056 356.07 335.831 359.139 334.958H359.143C359.281 334.916 359.423 334.874 359.561 334.836C359.849 334.761 359.916 335.217 359.632 335.296Z" fill="white"/>
<path d="M340.038 346.93C339.029 345.865 338.432 344.476 338.353 343.011C338.273 341.546 338.717 340.101 339.605 338.933C339.786 338.697 340.161 338.967 339.98 339.203C339.151 340.288 338.737 341.635 338.814 342.999C338.891 344.363 339.452 345.655 340.398 346.641C340.603 346.855 340.242 347.143 340.038 346.93Z" fill="white"/>
<path d="M334.874 358.493C337.872 358.601 340.8 357.576 343.076 355.621C343.301 355.427 343.59 355.787 343.365 355.98C340.994 358.01 337.944 359.071 334.825 358.952C334.527 358.94 334.579 358.482 334.874 358.493Z" fill="white"/>
<path d="M350.704 338.752C351.009 339.246 351.431 339.656 351.933 339.946C352.435 340.236 353.002 340.395 353.581 340.412C353.879 340.42 353.827 340.88 353.532 340.872C352.891 340.85 352.266 340.671 351.711 340.352C351.155 340.033 350.686 339.582 350.345 339.04C350.308 338.992 350.292 338.932 350.298 338.872C350.305 338.812 350.334 338.756 350.38 338.717C350.428 338.679 350.489 338.66 350.549 338.667C350.61 338.673 350.666 338.705 350.704 338.752Z" fill="white"/>
<path d="M221.115 424.302C220.51 426.575 218.918 428.467 216.996 429.845C216.682 430.071 216.361 430.28 216.035 430.476C215.935 430.535 215.834 430.597 215.73 430.651C215.617 430.718 215.504 430.781 215.391 430.839H206.354C206.191 430.509 206.032 430.175 205.874 429.845C202.001 421.708 199.281 412.928 199.744 403.985C199.928 400.516 200.657 397.098 201.904 393.856C204.386 387.394 208.915 381.801 215.145 378.985C215.299 378.914 215.462 378.843 215.621 378.776C215.571 378.956 215.521 379.131 215.471 379.311C214.802 381.718 214.33 384.175 214.059 386.658C214.033 386.851 214.013 387.043 213.996 387.239C213.402 393.228 213.929 399.275 215.55 405.071C215.554 405.084 215.558 405.1 215.563 405.113C215.918 406.395 216.33 407.658 216.799 408.901C217.167 409.883 217.564 410.852 217.998 411.805C219.812 415.802 222.243 420.063 221.115 424.302Z" fill="#E6E6E6"/>
<path d="M215.734 378.965C215.646 379.082 215.558 379.195 215.471 379.312C213.635 381.743 212.077 384.371 210.824 387.148C210.758 387.286 210.695 387.423 210.641 387.566C208.924 391.443 207.822 395.563 207.373 399.779C207.368 399.808 207.366 399.838 207.365 399.867C207.261 400.853 207.198 401.847 207.173 402.841C207.08 404.705 207.282 406.571 207.77 408.372C208.216 409.842 208.997 411.189 210.052 412.306C210.156 412.419 210.26 412.532 210.373 412.641C210.457 412.728 210.549 412.816 210.636 412.9C211.48 413.706 212.404 414.453 213.198 415.318C213.561 415.706 213.89 416.125 214.18 416.571C214.641 417.319 214.94 418.156 215.055 419.027C215.17 419.898 215.1 420.783 214.848 421.625C214.28 423.739 212.98 425.523 211.652 427.223C210.987 428.075 210.302 428.935 209.709 429.846C209.492 430.172 209.291 430.502 209.107 430.84H208.581C208.756 430.502 208.949 430.172 209.157 429.846C210.682 427.444 212.851 425.381 213.975 422.737C214.735 420.953 214.965 418.931 214.004 417.181C213.722 416.672 213.382 416.198 212.989 415.769C212.224 414.905 211.309 414.165 210.478 413.384C210.269 413.188 210.064 412.987 209.868 412.778C208.827 411.721 208.023 410.453 207.511 409.061C206.931 407.292 206.657 405.437 206.701 403.576C206.701 402.39 206.763 401.195 206.88 400.009C206.893 399.859 206.91 399.704 206.926 399.55C207.781 392.084 210.618 384.984 215.145 378.986C215.228 378.869 215.316 378.756 215.404 378.643C215.583 378.409 215.913 378.735 215.734 378.965Z" fill="white"/>
<path d="M207.095 400.048C205.648 399.805 204.334 399.056 203.389 397.934C202.443 396.812 201.927 395.391 201.933 393.924C201.934 393.864 201.958 393.807 202 393.764C202.042 393.722 202.099 393.697 202.159 393.696C202.219 393.695 202.277 393.716 202.321 393.757C202.365 393.798 202.391 393.854 202.395 393.914C202.387 395.28 202.867 396.604 203.75 397.647C204.632 398.69 205.859 399.383 207.208 399.601C207.501 399.649 207.386 400.096 207.095 400.048Z" fill="white"/>
<path d="M209.936 412.39C212.394 410.672 214.115 408.091 214.754 405.16C214.818 404.87 215.265 404.983 215.202 405.273C214.531 408.321 212.735 411.004 210.172 412.786C209.928 412.956 209.693 412.559 209.936 412.39Z" fill="white"/>
<path d="M210.686 387.099C211.226 387.31 211.811 387.383 212.386 387.312C212.962 387.241 213.51 387.028 213.983 386.693C214.225 386.52 214.46 386.917 214.22 387.089C213.696 387.457 213.089 387.691 212.453 387.771C211.818 387.851 211.172 387.774 210.573 387.546C210.515 387.529 210.465 387.491 210.434 387.439C210.403 387.387 210.393 387.325 210.406 387.266C210.421 387.207 210.459 387.156 210.512 387.125C210.564 387.094 210.627 387.084 210.686 387.099Z" fill="white"/>
<path d="M247.078 395.117C246.932 395.23 246.781 395.343 246.635 395.46C244.652 396.978 242.795 398.654 241.083 400.472C240.949 400.61 240.815 400.752 240.686 400.894L240.681 400.898C236.622 405.304 233.412 410.422 231.214 415.994L231.201 416.032C231.197 416.045 231.193 416.053 231.189 416.065C230.317 418.296 229.615 420.589 229.087 422.924C228.577 425.205 228.16 427.648 227.362 429.846C227.24 430.184 227.107 430.518 226.965 430.84H208.389C208.452 430.51 208.518 430.176 208.585 429.846C209.53 425.006 211.007 420.285 212.989 415.769C213.056 415.618 213.123 415.468 213.198 415.318C214.221 413.086 215.424 410.942 216.795 408.906L216.796 408.904V408.903L216.798 408.902C217.551 407.791 218.361 406.719 219.223 405.69C221.457 403.032 224.097 400.742 227.044 398.906C227.061 398.893 227.082 398.885 227.098 398.873C232.965 395.234 239.917 393.501 246.564 395H246.568C246.74 395.038 246.907 395.076 247.078 395.117Z" fill="#E6E6E6"/>
<path d="M247.057 395.339C246.915 395.376 246.773 395.418 246.635 395.46C243.707 396.297 240.881 397.455 238.208 398.914C238.074 398.985 237.941 399.061 237.807 399.136C234.113 401.197 230.76 403.816 227.867 406.901C227.865 406.903 227.863 406.906 227.863 406.909C227.83 406.943 227.792 406.98 227.763 407.014C227.094 407.732 226.451 408.48 225.841 409.249C224.648 410.682 223.686 412.293 222.991 414.023C222.46 415.465 222.273 417.011 222.444 418.538C222.456 418.693 222.477 418.843 222.498 418.998C222.515 419.119 222.532 419.24 222.553 419.365C222.828 421.04 223.305 422.72 223.171 424.428C223.09 425.303 222.824 426.152 222.391 426.917C221.958 427.682 221.368 428.347 220.66 428.868C220.178 429.24 219.664 429.568 219.122 429.846C218.348 430.245 217.542 430.577 216.712 430.84H215.07C215.291 430.777 215.508 430.715 215.73 430.652C216.516 430.43 217.287 430.161 218.04 429.846C218.47 429.666 218.889 429.459 219.294 429.228C220.973 428.263 222.373 426.784 222.665 424.808C222.92 423.079 222.427 421.35 222.135 419.658C222.085 419.365 222.039 419.077 222.014 418.789C221.814 417.324 221.935 415.833 222.369 414.42C222.97 412.657 223.869 411.009 225.026 409.549C225.742 408.599 226.506 407.686 227.316 406.813C227.416 406.701 227.52 406.588 227.629 406.475C230.583 403.368 233.994 400.73 237.744 398.651H237.748C240.537 397.099 243.495 395.874 246.564 395.001H246.568C246.706 394.959 246.848 394.917 246.986 394.879C247.274 394.804 247.341 395.26 247.057 395.339Z" fill="white"/>
<path d="M227.463 406.973C226.454 405.908 225.857 404.519 225.778 403.054C225.698 401.589 226.142 400.144 227.03 398.976C227.211 398.74 227.586 399.01 227.405 399.246C226.576 400.331 226.162 401.678 226.239 403.042C226.316 404.406 226.877 405.698 227.823 406.684C228.028 406.898 227.667 407.186 227.463 406.973Z" fill="white"/>
<path d="M222.299 418.536C225.297 418.644 228.225 417.618 230.5 415.664C230.726 415.47 231.015 415.829 230.79 416.023C228.418 418.053 225.369 419.114 222.249 418.994C221.952 418.983 222.003 418.524 222.299 418.536Z" fill="white"/>
<path d="M238.129 398.794C238.434 399.288 238.856 399.698 239.358 399.988C239.86 400.277 240.427 400.438 241.006 400.455C241.304 400.463 241.252 400.922 240.957 400.914C240.316 400.892 239.691 400.714 239.136 400.395C238.58 400.076 238.111 399.625 237.77 399.083C237.733 399.035 237.717 398.974 237.723 398.914C237.73 398.854 237.759 398.798 237.805 398.759C237.853 398.721 237.914 398.703 237.974 398.71C238.035 398.716 238.091 398.747 238.129 398.794Z" fill="white"/>
<path d="M241.206 310.569C243.975 310.569 246.22 308.325 246.22 305.556C246.22 302.788 243.975 300.544 241.206 300.544C238.437 300.544 236.192 302.788 236.192 305.556C236.192 308.325 238.437 310.569 241.206 310.569Z" fill="#F2F2F2"/>
<path d="M303.49 250.527C306.259 250.527 308.504 248.283 308.504 245.514C308.504 242.746 306.259 240.502 303.49 240.502C300.721 240.502 298.476 242.746 298.476 245.514C298.476 248.283 300.721 250.527 303.49 250.527Z" fill="#F2F2F2"/>
<path d="M131.354 150.378C134.123 150.378 136.368 148.134 136.368 145.366C136.368 142.597 134.123 140.353 131.354 140.353C128.585 140.353 126.341 142.597 126.341 145.366C126.341 148.134 128.585 150.378 131.354 150.378Z" fill="#F2F2F2"/>
<path d="M57.0274 431.639H368.831C368.97 431.639 369.102 431.585 369.2 431.487C369.298 431.389 369.352 431.257 369.352 431.119C369.352 430.98 369.298 430.848 369.2 430.75C369.102 430.653 368.97 430.598 368.831 430.598H57.0274C56.8892 430.598 56.7567 430.653 56.659 430.75C56.5612 430.848 56.5063 430.98 56.5063 431.119C56.5063 431.257 56.5612 431.389 56.659 431.487C56.7567 431.585 56.8892 431.639 57.0274 431.639Z" fill="#CCCCCC"/>
<path opacity="0.2" d="M247.444 193.343C249.728 197.246 250.548 201.835 249.756 206.288C248.965 210.74 246.615 214.766 243.126 217.645C239.638 220.523 235.238 222.067 230.715 221.999C226.192 221.93 221.841 220.255 218.441 217.273C219.833 219.657 221.726 221.709 223.991 223.289C226.255 224.868 228.835 225.937 231.553 226.42C234.271 226.904 237.062 226.792 239.732 226.09C242.403 225.389 244.888 224.116 247.018 222.359C249.147 220.602 250.869 218.403 252.064 215.915C253.26 213.427 253.9 210.709 253.94 207.949C253.981 205.189 253.421 202.454 252.299 199.932C251.177 197.41 249.521 195.161 247.444 193.343Z" fill="#231F20"/>
<path opacity="0.2" d="M270.833 167.362C286.472 187.577 289.169 216.63 271.841 236.154C252.48 257.968 195.544 262.729 156.319 300.405C156.972 304.334 157.915 308.21 159.14 312C198.385 270.557 258.676 266.25 278.715 243.673C298.337 221.565 292.281 187.239 270.833 167.362Z" fill="#231F20"/>
</g>
</g>
<mask id="mask2_67_311" style="mask-type:luminance" maskUnits="userSpaceOnUse" x="465" y="0" width="421" height="199">
<path d="M885.001 0H465.217V198.011H885.001V0Z" fill="white"/>
</mask>
<g mask="url(#mask2_67_311)">
<path d="M781.54 85.161V48.2885C781.54 44.612 784.195 41.6211 787.459 41.6211H808.872C812.136 41.6211 814.791 44.612 814.791 48.2885V85.161C814.791 88.8375 812.136 91.8284 808.872 91.8284H787.459C784.195 91.8284 781.54 88.8375 781.54 85.161Z" fill="#999999"/>
<path d="M792.506 57.5599H803.825V54.3721H792.506V57.5599Z" fill="#3F3D56"/>
<path d="M795.336 51.9813H800.996V41.6211H795.336V51.9813Z" fill="#3F3D56"/>
<path d="M795.336 91.8289H800.996V81.4688H795.336V91.8289Z" fill="#3F3D56"/>
<path d="M766.329 86.6516H733.597C730.333 86.6516 727.678 83.6607 727.678 79.9842V55.8627C727.678 52.1862 730.333 49.1953 733.597 49.1953H766.329C769.593 49.1953 772.248 52.1862 772.248 55.8627V79.9842C772.248 83.6607 769.593 86.6516 766.329 86.6516Z" fill="#999999"/>
<path d="M756.33 54.376H745.011V57.5638H756.33V54.376Z" fill="#3F3D56"/>
<path d="M736.875 71.1109V64.7354H727.678V71.1109H736.875Z" fill="#3F3D56"/>
<path d="M772.248 71.1109V64.7354H763.051V71.1109H772.248Z" fill="#3F3D56"/>
<path d="M500.807 155.602L495.342 119.695C492.914 103.739 503.397 88.9753 517.749 88.138L595.65 83.593L614.241 49.0756C616.706 44.4995 621.113 41.7051 625.865 41.7051H681.838C686.238 41.7051 689.956 45.3805 690.527 50.2948L691.948 77.9141L831.497 78.3847L849.052 143.554L832.757 142.659L833.593 162.427L812.285 163.368L805.181 140.743C803.844 136.482 797.983 131.679 791.891 127.66C778.234 118.65 760.688 121.542 750.353 135.044C747.915 138.229 746.21 141.548 745.734 144.66L742.51 165.721L586.249 162.897L565.769 130.626C559.719 123.209 531.156 120.485 528.584 130.626L513.132 156.308L500.807 155.602Z" fill="#E6E6E6"/>
<path d="M670.645 62.7083L675.243 87.1228L616.749 88.5347L629.103 58.6553C630.224 55.9448 632.684 54.2619 635.336 54.3918L663.365 55.7646C666.914 55.9384 669.908 58.7946 670.645 62.7083Z" fill="white"/>
<path d="M608.811 86.6515L620.509 52.7647L617.447 49.3145L598.365 81.945L602.243 88.5341L608.811 86.6515Z" fill="white"/>
<path d="M776.353 196.784C791.582 196.784 803.928 182.876 803.928 165.721C803.928 148.565 791.582 134.658 776.353 134.658C761.123 134.658 748.777 148.565 748.777 165.721C748.777 182.876 761.123 196.784 776.353 196.784Z" fill="#3F3D56"/>
<path d="M757.342 165.721C757.342 153.913 765.87 144.306 776.353 144.306C786.835 144.306 795.363 153.913 795.363 165.721C795.363 177.529 786.835 187.135 776.353 187.135C765.87 187.135 757.342 177.529 757.342 165.721ZM757.76 165.721C757.76 177.269 766.101 186.665 776.353 186.665C786.605 186.665 794.945 177.269 794.945 165.721C794.945 154.172 786.605 144.777 776.353 144.777C766.101 144.777 757.76 154.172 757.76 165.721Z" fill="white"/>
<path d="M760.058 165.721C760.058 175.858 767.353 184.076 776.353 184.076C785.352 184.076 792.647 175.858 792.647 165.721C792.647 155.583 785.352 147.365 776.353 147.365C767.353 147.365 760.058 155.583 760.058 165.721ZM786.945 161.325L784.058 163.445L782.948 161.528L786.945 161.325ZM782.549 172.105L783.318 169.987L785.739 173.574L782.549 172.105ZM775.157 179.369L777.188 175.488V179.369H775.157ZM775.157 156.895L777.188 153.013V156.895H775.157ZM766.131 173.574L768.551 169.987L769.32 172.105L766.131 173.574ZM764.925 161.325L768.921 161.528L767.812 163.445L764.925 161.325Z" fill="#E6E6E6"/>
<path d="M544.886 196.784C560.115 196.784 572.461 182.876 572.461 165.721C572.461 148.565 560.115 134.658 544.886 134.658C529.656 134.658 517.31 148.565 517.31 165.721C517.31 182.876 529.656 196.784 544.886 196.784Z" fill="#3F3D56"/>
<path d="M525.875 165.721C525.875 153.913 534.403 144.306 544.885 144.306C555.368 144.306 563.896 153.913 563.896 165.721C563.896 177.529 555.368 187.135 544.885 187.135C534.403 187.135 525.875 177.529 525.875 165.721ZM526.293 165.721C526.293 177.269 534.633 186.665 544.885 186.665C555.137 186.665 563.478 177.269 563.478 165.721C563.478 154.172 555.137 144.777 544.885 144.777C534.633 144.777 526.293 154.172 526.293 165.721Z" fill="white"/>
<path d="M528.591 165.721C528.591 175.858 535.886 184.076 544.885 184.076C553.885 184.076 561.18 175.858 561.18 165.721C561.18 155.583 553.885 147.365 544.885 147.365C535.886 147.365 528.591 155.583 528.591 165.721ZM555.477 161.325L552.59 163.445L551.481 161.528L555.477 161.325ZM551.082 172.105L551.851 169.987L554.272 173.574L551.082 172.105ZM543.69 179.369L545.721 175.488V179.369H543.69ZM543.69 156.895L545.721 153.013V156.895H543.69ZM534.663 173.574L537.084 169.987L537.853 172.105L534.663 173.574ZM533.458 161.325L537.454 161.528L536.345 163.445L533.458 161.325Z" fill="#E6E6E6"/>
<path d="M659.992 99.5943H675.869V95.8291H659.992V99.5943Z" fill="#3F3D56"/>
<path d="M883.774 173.507C883.626 172.997 882.504 173.222 882.397 172.765C882.289 172.311 883.366 171.93 884.191 170.648C884.34 170.417 885.278 168.961 884.918 168.349C884.236 167.188 879.492 170.079 878.353 168.457C878.103 168.101 878 167.49 877.255 166.352C876.959 165.9 876.769 165.681 876.542 165.688C876.22 165.697 876.105 166.151 875.598 166.973C874.839 168.207 874.565 168.052 874.064 169.062C873.693 169.813 873.649 170.292 873.381 170.32C873.002 170.36 872.846 169.426 872.383 169.39C871.91 169.353 871.437 170.276 871.203 170.997C870.763 172.35 871.035 173.385 871.096 174.415C871.161 175.535 871.007 177.175 869.927 179.28L859.736 197.57C861.924 193.842 868.137 183.674 870.64 179.944C871.363 178.868 872.139 177.787 873.334 177.583C874.485 177.387 875.885 178.029 877.839 177.991C878.068 177.987 878.703 177.966 878.857 177.587C878.985 177.273 878.668 177 878.783 176.706C878.938 176.31 879.634 176.48 880.583 176.217C881.252 176.032 881.707 175.726 882.098 175.463C882.215 175.384 883.971 174.186 883.774 173.507Z" fill="#F2F2F2"/>
<path d="M857.082 177.778C856.817 177.712 856.591 178.397 856.361 178.325C856.132 178.253 856.276 177.548 855.956 176.722C855.899 176.573 855.535 175.634 855.164 175.657C854.462 175.699 854.352 179.156 853.317 179.318C853.09 179.353 852.794 179.234 852.083 179.317C851.801 179.35 851.651 179.392 851.588 179.52C851.499 179.701 851.663 179.895 851.876 180.413C852.194 181.188 852.047 181.295 852.343 181.863C852.563 182.285 852.759 182.448 852.694 182.604C852.602 182.825 852.15 182.642 852.001 182.888C851.848 183.138 852.114 183.666 852.361 184.004C852.823 184.637 853.353 184.785 853.819 185.049C854.326 185.336 854.996 185.894 855.601 187.099L860.63 198.011C859.637 195.725 856.999 189.356 856.097 186.896C855.836 186.186 855.589 185.445 855.845 184.725C856.092 184.033 856.775 183.444 857.323 182.352C857.387 182.225 857.561 181.868 857.44 181.673C857.341 181.512 857.13 181.609 857.035 181.46C856.908 181.26 857.182 180.924 857.342 180.324C857.454 179.9 857.452 179.561 857.45 179.269C857.45 179.181 857.434 177.865 857.082 177.778Z" fill="#F2F2F2"/>
<path d="M862.098 180.44L862.256 178.796L862.353 178.693C862.802 178.215 863.083 177.71 863.188 177.189C863.205 177.106 863.218 177.022 863.231 176.937C863.283 176.599 863.348 176.179 863.637 175.743C863.798 175.499 864.225 174.95 864.666 175.142C864.785 175.192 864.865 175.279 864.921 175.371C864.935 175.355 864.949 175.339 864.964 175.322C865.155 175.113 865.288 175.037 865.416 174.964C865.515 174.907 865.616 174.849 865.788 174.694C865.864 174.626 865.924 174.565 865.975 174.513C866.13 174.358 866.328 174.176 866.598 174.248C866.885 174.336 866.984 174.645 867.049 174.849C867.166 175.213 867.202 175.463 867.226 175.63C867.234 175.69 867.244 175.759 867.252 175.781C867.314 175.959 868.103 176.005 868.4 176.025C869.067 176.065 869.644 176.101 869.783 176.615C869.883 176.983 869.675 177.385 869.148 177.84C868.984 177.982 868.82 178.08 868.677 178.153C868.765 178.246 868.835 178.374 868.839 178.547C868.849 178.958 868.475 179.273 867.728 179.485C867.543 179.538 867.293 179.609 866.967 179.591C866.813 179.583 866.678 179.556 866.563 179.531C866.546 179.605 866.515 179.682 866.458 179.754C866.292 179.969 866.023 180.023 865.659 179.902C865.257 179.776 864.939 179.604 864.658 179.453C864.413 179.322 864.202 179.21 864.025 179.179C863.695 179.127 863.388 179.356 863.02 179.661L862.098 180.44Z" fill="#F2F2F2"/>
<path d="M864.729 171.077L863.277 171.321L863.164 171.242C862.64 170.874 862.135 170.697 861.661 170.714C861.586 170.717 861.51 170.724 861.434 170.731C861.13 170.76 860.753 170.795 860.305 170.592C860.055 170.477 859.475 170.152 859.528 169.623C859.541 169.481 859.595 169.371 859.66 169.287C859.643 169.276 859.626 169.264 859.607 169.252C859.38 169.097 859.281 168.972 859.185 168.851C859.111 168.758 859.036 168.662 858.859 168.513C858.781 168.448 858.713 168.398 858.656 168.355C858.483 168.227 858.277 168.057 858.27 167.744C858.273 167.409 858.513 167.223 858.672 167.1C858.955 166.881 859.161 166.778 859.298 166.71C859.348 166.685 859.404 166.657 859.421 166.643C859.558 166.53 859.398 165.659 859.339 165.33C859.205 164.593 859.089 163.955 859.495 163.674C859.786 163.472 860.184 163.596 860.708 164.055C860.872 164.197 860.997 164.351 861.096 164.489C861.154 164.369 861.246 164.26 861.394 164.212C861.744 164.097 862.109 164.424 862.481 165.184C862.574 165.373 862.698 165.627 862.765 165.988C862.797 166.157 862.808 166.311 862.816 166.442C862.884 166.442 862.958 166.457 863.034 166.5C863.261 166.627 863.376 166.906 863.364 167.333C863.358 167.804 863.291 168.194 863.233 168.537C863.182 168.838 863.139 169.096 863.157 169.297C863.196 169.67 863.471 169.946 863.827 170.27L864.729 171.077Z" fill="#F2F2F2"/>
<path d="M864.925 166.166L865.083 164.522L865.18 164.419C865.628 163.941 865.909 163.435 866.014 162.915C866.031 162.832 866.044 162.748 866.057 162.663C866.11 162.325 866.175 161.905 866.463 161.468C866.625 161.225 867.052 160.675 867.492 160.867C867.611 160.918 867.691 161.004 867.747 161.096C867.761 161.08 867.776 161.064 867.791 161.047C867.981 160.839 868.114 160.763 868.242 160.689C868.341 160.633 868.443 160.574 868.615 160.419C868.69 160.351 868.751 160.29 868.802 160.239C868.956 160.083 869.154 159.901 869.425 159.973C869.712 160.062 869.81 160.37 869.876 160.574C869.992 160.939 870.028 161.189 870.052 161.355C870.06 161.416 870.07 161.484 870.078 161.506C870.141 161.685 870.929 161.731 871.226 161.75C871.893 161.791 872.471 161.826 872.609 162.341C872.709 162.709 872.501 163.11 871.975 163.566C871.81 163.707 871.646 163.805 871.503 163.878C871.591 163.972 871.661 164.099 871.666 164.273C871.675 164.683 871.302 164.998 870.555 165.211C870.369 165.264 870.12 165.335 869.793 165.317C869.639 165.308 869.504 165.282 869.389 165.257C869.372 165.331 869.341 165.407 869.284 165.48C869.118 165.694 868.85 165.749 868.485 165.628C868.083 165.502 867.765 165.33 867.485 165.179C867.24 165.048 867.029 164.935 866.851 164.904C866.522 164.853 866.214 165.082 865.847 165.387L864.925 166.166Z" fill="#F2F2F2"/>
<path d="M860.217 197.664L859.961 197.379L859.604 197.336C859.606 197.298 859.603 197.21 859.601 197.072C859.587 196.316 859.544 194.014 859.829 190.478C860.027 188.009 860.359 185.503 860.816 183.028C861.272 180.55 861.746 178.706 862.127 177.223C862.415 176.105 862.705 175.045 862.988 174.012C863.744 171.253 864.457 168.646 864.899 165.673C864.998 165.009 865.203 163.627 864.783 161.996C864.539 161.051 864.121 160.16 863.541 159.351L864.103 158.84C864.743 159.734 865.205 160.72 865.476 161.771C865.942 163.579 865.718 165.084 865.611 165.807C865.161 168.833 864.44 171.465 863.677 174.251C863.395 175.28 863.106 176.336 862.82 177.449C862.443 178.918 861.973 180.746 861.522 183.193C861.071 185.638 860.743 188.113 860.547 190.551C860.266 194.043 860.308 196.31 860.322 197.055C860.329 197.453 860.331 197.536 860.217 197.664Z" fill="#F2F2F2"/>
<path d="M862 160.287C861.971 160.279 861.942 160.271 861.913 160.262C861.321 160.075 860.846 159.531 860.501 158.646C860.339 158.23 860.301 157.792 860.225 156.918C860.213 156.783 860.16 156.102 860.225 155.199C860.267 154.608 860.324 154.371 860.466 154.185C860.625 153.978 860.838 153.859 861.063 153.8C861.07 153.721 861.092 153.645 861.137 153.573C861.323 153.272 861.633 153.396 861.801 153.46C861.886 153.494 861.992 153.538 862.111 153.56C862.298 153.597 862.41 153.56 862.579 153.505C862.74 153.452 862.941 153.386 863.219 153.392C863.767 153.4 864.173 153.678 864.307 153.769C865.012 154.246 865.255 155.007 865.537 155.888C865.593 156.065 865.778 156.704 865.822 157.526C865.853 158.119 865.784 158.362 865.705 158.535C865.543 158.892 865.296 159.058 864.682 159.406C864.04 159.771 863.718 159.953 863.454 160.047C862.84 160.264 862.454 160.401 862 160.287Z" fill="#F2F2F2"/>
<path d="M465.217 196.958C465.217 197.269 465.603 197.519 466.085 197.519H880.456C880.938 197.519 881.324 197.269 881.324 196.958C881.324 196.648 880.938 196.398 880.456 196.398H466.085C465.603 196.398 465.217 196.648 465.217 196.958Z" fill="#CCCCCC"/>
<path d="M675.768 193.421H681.569L684.329 168.215L675.767 168.216L675.768 193.421Z" fill="#FFB6B6"/>
<path d="M695.644 193.273C695.824 193.616 695.92 194.722 695.92 195.12C695.92 196.345 695.038 197.338 693.951 197.338H675.985C675.243 197.338 674.642 196.661 674.642 195.825V194.983C674.642 194.983 673.753 192.45 675.583 189.329C675.583 189.329 677.857 191.773 681.255 187.945L682.257 185.9L689.511 191.876L693.532 192.434C694.411 192.556 695.191 192.415 695.644 193.273Z" fill="#2F2E41"/>
<path d="M649.704 193.421H655.505L658.265 168.215L649.703 168.216L649.704 193.421Z" fill="#FFB6B6"/>
<path d="M669.58 193.273C669.76 193.616 669.856 194.722 669.856 195.12C669.856 196.345 668.974 197.338 667.887 197.338H649.921C649.179 197.338 648.578 196.661 648.578 195.825V194.983C648.578 194.983 647.689 192.45 649.519 189.329C649.519 189.329 651.793 191.773 655.191 187.945L656.193 185.9L663.447 191.876L667.468 192.434C668.347 192.556 669.127 192.415 669.58 193.273Z" fill="#2F2E41"/>
<path d="M674.85 21.309L675.951 32.8878L663.102 31.6472L665.305 20.8955L674.85 21.309Z" fill="#FFB6B6"/>
<path opacity="0.1" d="M674.85 21.309L675.951 32.8878L663.102 31.6472L665.305 20.8955L674.85 21.309Z" fill="black"/>
<path d="M670.261 22.7566C674.924 22.7566 678.704 18.4983 678.704 13.2455C678.704 7.99265 674.924 3.73438 670.261 3.73438C665.598 3.73438 661.817 7.99265 661.817 13.2455C661.817 18.4983 665.598 22.7566 670.261 22.7566Z" fill="#FFB6B6"/>
<path d="M675.767 28.1327L689.901 37.4371L685.27 62.6622L688.432 96.5714L686.23 179.69L672.647 178.036L670.811 107.323L660.165 180.517H646.976L649.152 101.533L655.76 68.0381L651.722 31.6477L664.02 27.3057L675.767 28.1327Z" fill="#2F2E41"/>
<path d="M676.318 15.9331C676.318 15.9331 677.052 13.0384 678.704 13.2452C680.356 13.452 680.723 11.7978 680.356 10.9708C679.989 10.1437 679.255 6.00847 679.255 6.00847C679.255 6.00847 679.622 3.11378 677.419 2.70026C675.216 2.28673 674.482 1.8732 674.115 1.04615C673.748 0.219094 668.242 -0.607957 666.406 0.632622C664.571 1.8732 663.102 4.25342 661.817 4.92418C660.532 5.59494 659.431 6.83552 660.165 8.90316C660.9 10.9708 661.964 15.0146 661.964 15.0146C661.964 15.0146 663.836 14.279 664.203 15.5196C664.571 16.7602 663.102 15.1061 664.938 11.7978C666.773 8.48963 666.773 5.18142 669.71 6.422C672.647 7.66258 675.951 7.24905 675.584 9.73021C675.216 12.2114 676.318 15.9331 676.318 15.9331Z" fill="#2F2E41"/>
<path d="M682.612 89.1526C680.845 91.2602 680.378 93.9955 681.569 95.262C682.76 96.5286 685.157 95.8466 686.925 93.738C687.641 92.9066 688.17 91.8941 688.468 90.7852L695.854 81.7489L692.016 77.9346L685.142 87.2477C684.176 87.646 683.308 88.2992 682.612 89.1526Z" fill="#FFB6B6"/>
<path d="M689.752 37.2295L702.191 61.1024L704.034 72.0009L692.056 89.1271L686.988 81.8615L692.977 72.0009L683.302 52.7988L689.752 37.2295Z" fill="#2F2E41"/>
<path d="M654.778 86.9295V58.7821C654.778 54.492 657.876 51.002 661.684 51.002H699.88C703.689 51.002 706.787 54.492 706.787 58.7821V86.9295C706.787 91.2196 703.689 94.7097 699.88 94.7097H661.684C657.876 94.7097 654.778 91.2196 654.778 86.9295Z" fill="#999999"/>
<path d="M673.352 68.7677H686.561V65.0479H673.352V68.7677Z" fill="#3F3D56"/>
<path d="M685.479 94.4601V87.0205H674.747V94.4601H685.479Z" fill="#3F3D56"/>
<path d="M685.982 58.6916V51.252H675.25V58.6916H685.982Z" fill="#3F3D56"/>
<path d="M658.643 83.7776C660.41 85.8852 660.877 88.6205 659.686 89.887C658.496 91.1536 656.098 90.4716 654.331 88.363C653.615 87.5316 653.085 86.5191 652.788 85.4102L645.401 76.3739L649.239 72.5596L656.114 81.8727C657.08 82.271 657.947 82.9242 658.643 83.7776Z" fill="#FFB6B6"/>
<path d="M651.504 31.8535L639.065 55.7264L637.222 66.6249L649.2 83.7511L654.268 76.4855L648.279 66.6249L657.954 47.4228L651.504 31.8535Z" fill="#2F2E41"/>
<path d="M496.83 145.687C503.061 145.687 508.111 140.735 508.111 134.627C508.111 128.518 503.061 123.566 496.83 123.566C490.6 123.566 485.55 128.518 485.55 134.627C485.55 140.735 490.6 145.687 496.83 145.687Z" fill="#E6E6E6"/>
</g>
</svg>
