<svg width="254" height="107" viewBox="0 0 254 107" fill="none" xmlns="http://www.w3.org/2000/svg">
<g clip-path="url(#clip0_76_312)">
<path d="M191.399 45.7436V25.9378C191.399 23.963 193.006 22.3564 194.98 22.3564H207.937C209.912 22.3564 211.518 23.963 211.518 25.9378V45.7436C211.518 47.7184 209.912 49.325 207.937 49.325H194.98C193.006 49.325 191.399 47.7184 191.399 45.7436Z" fill="#F9A826"/>
<path d="M198.034 30.918H204.883V29.2057H198.034V30.918Z" fill="#3F3D56"/>
<path d="M199.747 27.9214H203.171V22.3565H199.747V27.9214Z" fill="#3F3D56"/>
<path d="M199.747 49.3252H203.171V43.7603H199.747V49.3252Z" fill="#3F3D56"/>
<path d="M182.196 46.5441H162.39C160.415 46.5441 158.808 44.9376 158.808 42.9628V30.0061C158.808 28.0313 160.415 26.4248 162.39 26.4248H182.196C184.17 26.4248 185.777 28.0313 185.777 30.0061V42.9628C185.777 44.9376 184.17 46.5441 182.196 46.5441Z" fill="#F9A826"/>
<path d="M176.145 29.207H169.296V30.9193H176.145V29.207Z" fill="#3F3D56"/>
<path d="M164.373 38.1966V34.772H158.808V38.1966H164.373Z" fill="#3F3D56"/>
<path d="M185.777 38.1965V34.772H180.212V38.1965H185.777Z" fill="#3F3D56"/>
<path d="M21.5345 83.5805L18.2281 64.2933C16.7589 55.7229 23.1022 47.7922 31.7859 47.3424L78.9216 44.9011L90.1711 26.3604C91.6624 23.9024 94.3289 22.4014 97.2039 22.4014H131.072C133.734 22.4014 135.984 24.3756 136.329 27.0153L137.189 41.8508L221.627 42.1036L232.249 77.1091L222.389 76.6284L222.895 87.2462L210.002 87.7518L205.704 75.5989C204.895 73.3105 201.348 70.7303 197.662 68.5715C189.398 63.7319 178.782 65.2852 172.528 72.5379C171.053 74.2488 170.022 76.0314 169.734 77.703L167.783 89.0159L73.2335 87.499L60.8418 70.1651C57.1808 66.181 39.8984 64.7176 38.342 70.1651L28.9923 83.9597L21.5345 83.5805Z" fill="#973593"/>
<path d="M124.299 33.6828L127.081 46.7969L91.6883 47.5553L99.1634 31.5058C99.8415 30.0499 101.33 29.1459 102.935 29.2157L119.895 29.9531C122.042 30.0464 123.853 31.5806 124.299 33.6828Z" fill="white"/>
<path d="M86.885 46.5441L93.9636 28.342L92.1103 26.4888L80.5648 44.016L82.9107 47.5553L86.885 46.5441Z" fill="white"/>
<path d="M188.26 105.701C197.475 105.701 204.946 98.2303 204.946 89.0153C204.946 79.8003 197.475 72.3301 188.26 72.3301C179.045 72.3301 171.575 79.8003 171.575 89.0153C171.575 98.2303 179.045 105.701 188.26 105.701Z" fill="#3F3D56"/>
<path d="M176.758 89.0159C176.758 82.6732 181.918 77.5132 188.26 77.5132C194.603 77.5132 199.763 82.6732 199.763 89.0159C199.763 95.3585 194.603 100.519 188.26 100.519C181.918 100.519 176.758 95.3585 176.758 89.0159ZM177.011 89.0159C177.011 95.219 182.057 100.266 188.26 100.266C194.464 100.266 199.51 95.219 199.51 89.0159C199.51 82.8127 194.464 77.766 188.26 77.766C182.057 77.766 177.011 82.8127 177.011 89.0159Z" fill="white"/>
<path d="M178.401 89.0157C178.401 94.4609 182.815 98.8752 188.26 98.8752C193.706 98.8752 198.12 94.4609 198.12 89.0157C198.12 83.5705 193.706 79.1562 188.26 79.1562C182.815 79.1562 178.401 83.5705 178.401 89.0157ZM194.669 86.6547L192.923 87.7932L192.251 86.7635L194.669 86.6547ZM192.01 92.4451L192.475 91.3074L193.94 93.2343L192.01 92.4451ZM187.537 96.3471L188.766 94.2619V96.3471H187.537ZM187.537 84.2751L188.766 82.1899V84.2751H187.537ZM182.075 93.2343L183.54 91.3074L184.005 92.4451L182.075 93.2343ZM181.346 86.6547L183.764 86.7635L183.093 87.7932L181.346 86.6547Z" fill="#E6E6E6"/>
<path d="M48.2057 105.701C57.4207 105.701 64.8909 98.2303 64.8909 89.0153C64.8909 79.8003 57.4207 72.3301 48.2057 72.3301C38.9907 72.3301 31.5204 79.8003 31.5204 89.0153C31.5204 98.2303 38.9907 105.701 48.2057 105.701Z" fill="#3F3D56"/>
<path d="M36.7029 89.0159C36.7029 82.6732 41.8629 77.5132 48.2056 77.5132C54.5482 77.5132 59.7083 82.6732 59.7083 89.0159C59.7083 95.3585 54.5482 100.519 48.2056 100.519C41.8629 100.519 36.7029 95.3585 36.7029 89.0159ZM36.9557 89.0159C36.9557 95.219 42.0023 100.266 48.2056 100.266C54.4088 100.266 59.4554 95.219 59.4554 89.0159C59.4554 82.8127 54.4088 77.766 48.2056 77.766C42.0023 77.766 36.9557 82.8127 36.9557 89.0159Z" fill="white"/>
<path d="M38.3461 89.0157C38.3461 94.4609 42.7604 98.8752 48.2056 98.8752C53.6508 98.8752 58.065 94.4609 58.065 89.0157C58.065 83.5705 53.6508 79.1562 48.2056 79.1562C42.7604 79.1562 38.3461 83.5705 38.3461 89.0157ZM54.6146 86.6547L52.8677 87.7932L52.1965 86.7635L54.6146 86.6547ZM51.9551 92.4451L52.4203 91.3074L53.8851 93.2343L51.9551 92.4451ZM47.482 96.3471L48.7112 94.2619V96.3471H47.482ZM47.482 84.2751L48.7112 82.1899V84.2751H47.482ZM42.0204 93.2343L43.4852 91.3074L43.9505 92.4451L42.0204 93.2343ZM41.291 86.6547L43.709 86.7635L43.0379 87.7932L41.291 86.6547Z" fill="#E6E6E6"/>
<path d="M117.854 53.4966H127.46V51.4741H117.854V53.4966Z" fill="#3F3D56"/>
<path d="M253.258 93.1983C253.169 92.9243 252.49 93.0449 252.425 92.7999C252.36 92.5557 253.011 92.3509 253.511 91.6627C253.601 91.5386 254.168 90.7566 253.951 90.4276C253.538 89.8042 250.667 91.357 249.978 90.4856C249.827 90.2944 249.765 89.9661 249.314 89.3551C249.135 89.112 249.02 88.9946 248.882 88.9981C248.687 89.003 248.618 89.2469 248.311 89.6887C247.852 90.3512 247.686 90.2681 247.383 90.8109C247.159 91.2139 247.132 91.4714 246.97 91.4865C246.741 91.508 246.646 91.0063 246.366 90.9868C246.08 90.967 245.794 91.4627 245.652 91.85C245.386 92.5769 245.55 93.1325 245.587 93.6861C245.627 94.2878 245.533 95.1686 244.88 96.2991L238.713 106.124C240.038 104.121 243.797 98.6593 245.311 96.656C245.749 96.0777 246.218 95.497 246.942 95.3878C247.638 95.2826 248.485 95.627 249.667 95.607C249.806 95.6046 250.19 95.5932 250.283 95.3895C250.361 95.2211 250.169 95.0747 250.239 94.9164C250.332 94.7041 250.753 94.7952 251.328 94.6542C251.732 94.5547 252.007 94.3904 252.244 94.2491C252.315 94.2065 253.377 93.5631 253.258 93.1983Z" fill="#F2F2F2"/>
<path d="M237.107 95.492C236.947 95.4569 236.811 95.8248 236.671 95.786C236.533 95.7474 236.62 95.3687 236.427 94.925C236.392 94.845 236.172 94.3408 235.947 94.3527C235.522 94.3754 235.456 96.2325 234.83 96.3192C234.692 96.3383 234.513 96.2741 234.083 96.3189C233.912 96.3368 233.821 96.3594 233.783 96.4278C233.73 96.5249 233.829 96.6295 233.958 96.9073C234.15 97.324 234.061 97.3814 234.241 97.6866C234.374 97.9132 234.492 98.0005 234.453 98.0844C234.397 98.2032 234.124 98.1049 234.033 98.2368C233.941 98.3714 234.102 98.6549 234.251 98.8363C234.531 99.1766 234.851 99.256 235.133 99.3978C235.44 99.552 235.846 99.8519 236.212 100.499L239.255 106.36C238.654 105.132 237.058 101.711 236.512 100.39C236.354 100.009 236.204 99.6105 236.359 99.224C236.509 98.8519 236.922 98.5355 237.254 97.9494C237.292 97.8809 237.398 97.689 237.325 97.5843C237.264 97.4978 237.137 97.5498 237.079 97.4698C237.002 97.3626 237.168 97.1821 237.265 96.8596C237.333 96.6323 237.332 96.4499 237.331 96.293C237.33 96.2457 237.321 95.5387 237.107 95.492Z" fill="#F2F2F2"/>
<path d="M240.143 96.9224L240.239 96.0394L240.297 95.9839C240.569 95.7274 240.739 95.4557 240.802 95.176C240.812 95.1315 240.82 95.0865 240.828 95.0407C240.86 94.8592 240.899 94.6335 241.074 94.3991C241.172 94.2685 241.43 93.9733 241.697 94.0764C241.769 94.1033 241.817 94.15 241.851 94.1994C241.859 94.1908 241.868 94.1823 241.877 94.173C241.992 94.0611 242.073 94.0201 242.15 93.9807C242.21 93.9503 242.272 93.919 242.376 93.8357C242.422 93.7992 242.458 93.7663 242.489 93.7387C242.582 93.6552 242.702 93.5574 242.866 93.5961C243.04 93.6436 243.099 93.8093 243.139 93.919C243.209 94.1146 243.231 94.2492 243.245 94.3384C243.251 94.371 243.257 94.4077 243.261 94.4196C243.299 94.5154 243.776 94.5402 243.956 94.5506C244.359 94.5725 244.709 94.5914 244.793 94.8678C244.853 95.0655 244.727 95.2812 244.409 95.5258C244.309 95.6019 244.21 95.6544 244.124 95.6937C244.177 95.7439 244.219 95.8123 244.222 95.9055C244.228 96.126 244.001 96.2952 243.55 96.4093C243.437 96.4379 243.286 96.4759 243.089 96.4663C242.996 96.4617 242.914 96.4474 242.845 96.4341C242.834 96.4737 242.815 96.5149 242.781 96.554C242.68 96.6691 242.518 96.6984 242.297 96.6335C242.054 96.5657 241.862 96.4734 241.692 96.3924C241.544 96.3217 241.416 96.2614 241.309 96.2449C241.109 96.217 240.923 96.3401 240.701 96.504L240.143 96.9224Z" fill="#F2F2F2"/>
<path d="M241.735 91.8929L240.856 92.0243L240.788 91.9817C240.471 91.7842 240.165 91.6889 239.878 91.6983C239.833 91.6997 239.787 91.7035 239.741 91.7074C239.557 91.7227 239.329 91.7418 239.058 91.6325C238.907 91.5711 238.556 91.396 238.588 91.112C238.596 91.0356 238.628 90.9768 238.668 90.9317C238.657 90.9257 238.647 90.9194 238.635 90.9128C238.498 90.8298 238.438 90.7623 238.38 90.6973C238.336 90.6473 238.29 90.5957 238.183 90.5161C238.136 90.4811 238.095 90.4541 238.06 90.4313C237.956 90.362 237.831 90.2711 237.827 90.1028C237.829 89.9227 237.974 89.8231 238.07 89.7571C238.241 89.6392 238.366 89.584 238.448 89.5475C238.479 89.5342 238.513 89.5191 238.523 89.5117C238.606 89.4506 238.509 88.9827 238.473 88.8064C238.392 88.4104 238.322 88.0678 238.568 87.9164C238.744 87.808 238.984 87.8748 239.302 88.1211C239.401 88.1978 239.477 88.2805 239.537 88.3542C239.572 88.29 239.627 88.2316 239.717 88.2055C239.928 88.1439 240.149 88.3198 240.374 88.7279C240.431 88.8293 240.506 88.9657 240.546 89.1593C240.566 89.2505 240.573 89.333 240.577 89.4037C240.618 89.4036 240.663 89.4116 240.709 89.4348C240.846 89.5029 240.916 89.6526 240.909 89.8823C240.905 90.1349 240.865 90.3443 240.829 90.529C240.798 90.6903 240.773 90.8292 240.784 90.9371C240.807 91.1371 240.974 91.2858 241.189 91.4595L241.735 91.8929Z" fill="#F2F2F2"/>
<path d="M241.853 89.2549L241.949 88.3719L242.007 88.3164C242.279 88.0599 242.449 87.7882 242.512 87.5085C242.522 87.464 242.53 87.4191 242.538 87.3733C242.57 87.1917 242.61 86.966 242.784 86.7316C242.882 86.601 243.14 86.3058 243.407 86.4089C243.479 86.4358 243.527 86.4825 243.561 86.5319C243.569 86.5233 243.578 86.5148 243.587 86.5055C243.702 86.3936 243.783 86.3526 243.861 86.3132C243.92 86.2828 243.982 86.2516 244.086 86.1682C244.132 86.1317 244.168 86.0988 244.199 86.0712C244.293 85.9877 244.412 85.8899 244.576 85.9287C244.75 85.9761 244.809 86.1418 244.849 86.2515C244.919 86.4471 244.941 86.5817 244.955 86.6709C244.961 86.7035 244.967 86.7402 244.971 86.7521C245.009 86.848 245.486 86.8727 245.666 86.8831C246.07 86.905 246.419 86.9239 246.503 87.2003C246.563 87.398 246.438 87.6137 246.119 87.8583C246.019 87.9344 245.92 87.9869 245.834 88.0262C245.887 88.0765 245.929 88.1449 245.932 88.238C245.938 88.4585 245.712 88.6277 245.26 88.7418C245.147 88.7705 244.996 88.8084 244.799 88.7988C244.706 88.7942 244.624 88.78 244.555 88.7666C244.544 88.8062 244.525 88.8474 244.491 88.8865C244.39 89.0016 244.228 89.0309 244.008 88.966C243.764 88.8982 243.572 88.806 243.402 88.7249C243.254 88.6543 243.126 88.5939 243.019 88.5774C242.819 88.5495 242.633 88.6726 242.411 88.8365L241.853 89.2549Z" fill="#F2F2F2"/>
<path d="M239.005 106.174L238.85 106.02L238.634 105.998C238.635 105.977 238.633 105.93 238.632 105.856C238.623 105.449 238.598 104.213 238.77 102.314C238.89 100.988 239.091 99.6415 239.367 98.3123C239.643 96.9809 239.93 95.9903 240.161 95.1942C240.334 94.5937 240.51 94.0241 240.681 93.4693C241.139 91.987 241.57 90.5868 241.838 88.9897C241.897 88.6332 242.022 87.891 241.767 87.0151C241.62 86.5071 241.367 86.0289 241.016 85.5942L241.356 85.3198C241.743 85.8001 242.023 86.3297 242.187 86.8938C242.469 87.8649 242.333 88.6736 242.268 89.0622C241.996 90.6875 241.56 92.1011 241.098 93.5977C240.928 94.1505 240.753 94.7175 240.58 95.3156C240.351 96.1044 240.067 97.0864 239.794 98.4006C239.521 99.714 239.323 101.044 239.204 102.353C239.034 104.228 239.06 105.446 239.068 105.846C239.073 106.06 239.074 106.105 239.005 106.174Z" fill="#F2F2F2"/>
<path d="M240.084 86.0969C240.066 86.093 240.049 86.0886 240.031 86.0834C239.673 85.9829 239.385 85.6909 239.176 85.2155C239.079 84.9919 239.056 84.7567 239.01 84.2875C239.002 84.2151 238.971 83.8491 239.01 83.3639C239.035 83.0469 239.069 82.9196 239.156 82.8196C239.251 82.7082 239.38 82.6444 239.517 82.6124C239.521 82.5704 239.534 82.5294 239.562 82.4905C239.674 82.3291 239.862 82.3954 239.963 82.4299C240.015 82.4484 240.079 82.4718 240.151 82.4839C240.264 82.5035 240.331 82.4836 240.434 82.454C240.531 82.4256 240.653 82.3903 240.821 82.3933C241.153 82.3978 241.398 82.5469 241.479 82.596C241.906 82.8523 242.053 83.2611 242.224 83.7344C242.257 83.8293 242.37 84.1723 242.396 84.6139C242.415 84.9325 242.373 85.063 242.325 85.1562C242.227 85.3479 242.078 85.4368 241.706 85.6238C241.318 85.8197 241.123 85.9178 240.963 85.9682C240.592 86.0848 240.358 86.1581 240.084 86.0969Z" fill="#F2F2F2"/>
<path d="M0 105.794C0 105.961 0.233917 106.095 0.525208 106.095H251.251C251.542 106.095 251.776 105.961 251.776 105.794C251.776 105.628 251.542 105.494 251.251 105.494H0.525208C0.233917 105.494 0 105.628 0 105.794Z" fill="#CCCCCC"/>
<path d="M127.399 103.895L130.909 103.895L132.579 90.3555L127.399 90.3558L127.399 103.895Z" fill="#FFB6B6"/>
<path d="M139.425 103.815C139.535 103.999 139.592 104.593 139.592 104.807C139.592 105.465 139.059 105.999 138.401 105.999L127.531 105.999C127.082 105.999 126.718 105.635 126.718 105.186V104.734C126.718 104.734 126.18 103.373 127.287 101.697C127.287 101.697 128.663 103.01 130.719 100.953L131.326 99.855L135.715 103.065L138.148 103.364C138.68 103.43 139.152 103.354 139.425 103.815Z" fill="#2F2E41"/>
<path d="M111.629 103.895L115.139 103.895L116.808 90.3555L111.628 90.3558L111.629 103.895Z" fill="#FFB6B6"/>
<path d="M123.655 103.815C123.764 103.999 123.822 104.593 123.822 104.807C123.822 105.465 123.288 105.999 122.63 105.999L111.76 105.999C111.311 105.999 110.947 105.635 110.947 105.186V104.734C110.947 104.734 110.409 103.373 111.517 101.697C111.517 101.697 112.893 103.01 114.949 100.953L115.555 99.855L119.944 103.065L122.377 103.364C122.909 103.43 123.381 103.354 123.655 103.815Z" fill="#2F2E41"/>
<path d="M126.843 11.4458L127.51 17.6652L119.735 16.9988L121.068 11.2236L126.843 11.4458Z" fill="#FFB6B6"/>
<path opacity="0.1" d="M126.843 11.4458L127.51 17.6652L119.735 16.9988L121.068 11.2236L126.843 11.4458Z" fill="black"/>
<path d="M124.067 12.2235C126.888 12.2235 129.176 9.9362 129.176 7.11468C129.176 4.29316 126.888 2.00586 124.067 2.00586C121.245 2.00586 118.958 4.29316 118.958 7.11468C118.958 9.9362 121.245 12.2235 124.067 12.2235Z" fill="#FFB6B6"/>
<path d="M127.399 15.1107L135.95 20.1085L133.148 33.658L135.062 51.8721L133.729 96.5188L125.511 95.6303L124.4 57.6473L117.958 96.9631H109.978L111.295 54.5376L115.293 36.5456L112.85 16.9988L120.291 14.6665L127.399 15.1107Z" fill="#2F2E41"/>
<path d="M127.732 8.55834C127.732 8.55834 128.176 7.00349 129.176 7.11455C130.175 7.22561 130.397 6.33712 130.175 5.89287C129.953 5.44863 129.509 3.2274 129.509 3.2274C129.509 3.2274 129.731 1.67254 128.398 1.45042C127.065 1.2283 126.621 1.00617 126.399 0.561931C126.177 0.117685 122.845 -0.326559 121.735 0.339808C120.624 1.00617 119.735 2.28469 118.958 2.64499C118.181 3.00528 117.514 3.67165 117.958 4.78226C118.403 5.89287 119.047 8.065 119.047 8.065C119.047 8.065 120.18 7.66985 120.402 8.33622C120.624 9.00259 119.735 8.1141 120.846 6.33712C121.957 4.56014 121.957 2.78316 123.734 3.44953C125.511 4.11589 127.51 3.89377 127.288 5.22651C127.065 6.55924 127.732 8.55834 127.732 8.55834Z" fill="#2F2E41"/>
<path d="M131.54 47.8875C130.471 49.0196 130.189 50.4888 130.909 51.1691C131.63 51.8494 133.08 51.4831 134.15 50.3505C134.583 49.9039 134.903 49.3601 135.083 48.7644L139.553 43.9107L137.231 41.8618L133.071 46.8643C132.486 47.0782 131.962 47.4291 131.54 47.8875Z" fill="#FFB6B6"/>
<path d="M135.86 19.9976L143.387 32.8207L144.502 38.6748L137.254 47.874L134.188 43.9713L137.812 38.6748L131.958 28.3605L135.86 19.9976Z" fill="#2F2E41"/>
<path d="M114.698 46.6937V31.5746C114.698 29.2702 116.573 27.3955 118.878 27.3955H141.989C144.293 27.3955 146.168 29.2702 146.168 31.5746V46.6937C146.168 48.9981 144.293 50.8728 141.989 50.8728H118.878C116.573 50.8728 114.698 48.9981 114.698 46.6937Z" fill="#F9A826"/>
<path d="M125.938 36.938H133.93V34.9399H125.938V36.938Z" fill="#3F3D56"/>
<path d="M133.275 50.7388V46.7427H126.781V50.7388H133.275Z" fill="#3F3D56"/>
<path d="M133.58 31.5254V27.5293H127.086V31.5254H133.58Z" fill="#3F3D56"/>
<path d="M117.037 44.9998C118.107 46.1319 118.389 47.6011 117.669 48.2814C116.948 48.9617 115.497 48.5954 114.428 47.4628C113.995 47.0162 113.675 46.4724 113.494 45.8767L109.025 41.023L111.347 38.9741L115.507 43.9766C116.092 44.1905 116.616 44.5414 117.037 44.9998Z" fill="#FFB6B6"/>
<path d="M112.718 17.1099L105.191 29.933L104.076 35.7871L111.324 44.9863L114.39 41.0836L110.766 35.7871L116.62 25.4728L112.718 17.1099Z" fill="#2F2E41"/>
<path d="M19.1287 78.255C22.8985 78.255 25.9545 75.5951 25.9545 72.314C25.9545 69.0329 22.8985 66.373 19.1287 66.373C15.359 66.373 12.303 69.0329 12.303 72.314C12.303 75.5951 15.359 78.255 19.1287 78.255Z" fill="#2DF459"/>
</g>
<defs>
<clipPath id="clip0_76_312">
<rect width="254" height="106.36" fill="white"/>
</clipPath>
</defs>
</svg>
