<svg width="310" height="227" viewBox="0 0 310 227" fill="none" xmlns="http://www.w3.org/2000/svg">
<g clip-path="url(#clip0_18_542)">
<path d="M190.779 200.798C188.83 201.485 186.738 201.658 184.704 201.298C182.67 200.939 180.762 200.06 179.165 198.746C175.098 195.321 173.822 189.679 172.785 184.455L169.715 169L176.141 173.439C180.762 176.631 185.488 179.926 188.687 184.549C191.886 189.173 193.282 195.485 190.712 200.488" fill="#2DF459"/>
<path d="M189.786 220.585C190.595 214.674 191.427 208.686 190.859 202.711C190.355 197.405 188.741 192.223 185.456 187.973C183.712 185.721 181.59 183.792 179.186 182.272C178.559 181.875 177.982 182.872 178.606 183.267C182.766 185.905 185.985 189.8 187.796 194.392C189.797 199.497 190.118 205.062 189.774 210.486C189.565 213.766 189.123 217.024 188.678 220.278C188.643 220.425 188.665 220.58 188.74 220.712C188.814 220.844 188.936 220.942 189.08 220.987C189.226 221.027 189.383 221.007 189.515 220.931C189.648 220.856 189.745 220.731 189.786 220.584L189.786 220.585Z" fill="#F2F2F2"/>
<path d="M183.965 211.1C183.129 212.374 181.98 213.411 180.629 214.111C179.278 214.811 177.77 215.15 176.251 215.095C172.345 214.909 169.09 212.175 166.16 209.579L157.492 201.901L163.228 201.626C167.354 201.428 171.586 201.242 175.515 202.52C179.444 203.797 183.068 206.868 183.786 210.948" fill="#2DF459"/>
<path d="M192.072 223.983C188.179 217.071 183.663 209.39 175.593 206.934C173.349 206.254 170.996 206.01 168.661 206.216C167.925 206.28 168.109 207.418 168.844 207.355C172.758 207.029 176.664 208.066 179.905 210.291C183.024 212.421 185.453 215.382 187.508 218.522C188.767 220.445 189.895 222.45 191.023 224.453C191.383 225.093 192.437 224.63 192.072 223.983Z" fill="#F2F2F2"/>
<path d="M139.733 145.057C151.408 145.057 160.872 135.563 160.872 123.85C160.872 112.137 151.408 102.643 139.733 102.643C128.058 102.643 118.594 112.137 118.594 123.85C118.594 135.563 128.058 145.057 139.733 145.057Z" fill="white"/>
<path d="M139.733 145.412C135.482 145.412 131.326 144.148 127.792 141.778C124.257 139.409 121.503 136.041 119.876 132.101C118.249 128.161 117.823 123.826 118.653 119.643C119.482 115.461 121.529 111.619 124.535 108.603C127.541 105.588 131.37 103.534 135.54 102.702C139.709 101.87 144.03 102.297 147.958 103.929C151.885 105.561 155.242 108.325 157.604 111.871C159.965 115.416 161.226 119.585 161.226 123.85C161.219 129.567 158.953 135.047 154.923 139.09C150.894 143.132 145.431 145.406 139.733 145.412ZM139.733 102.997C135.622 102.997 131.603 104.22 128.185 106.512C124.767 108.803 122.103 112.06 120.529 115.87C118.956 119.68 118.545 123.873 119.347 127.918C120.149 131.963 122.128 135.679 125.035 138.595C127.942 141.511 131.646 143.497 135.678 144.302C139.71 145.106 143.889 144.693 147.687 143.115C151.485 141.537 154.731 138.864 157.015 135.435C159.299 132.006 160.518 127.974 160.518 123.85C160.512 118.321 158.32 113.021 154.423 109.112C150.527 105.203 145.244 103.004 139.733 102.997Z" fill="#3F3D56"/>
<path d="M136.166 139.958L136.024 139.897C135.943 139.863 134.049 139.004 134.73 135.454L134.742 135.414L134.994 134.85C135.735 133.186 136.097 131.377 136.055 129.555C134.532 129.52 126.727 129.297 125.813 128.446C125.507 128.162 125.322 127.77 125.297 127.353L125.25 126.606C125.236 126.377 125.269 126.148 125.346 125.933C125.424 125.717 125.544 125.52 125.701 125.353C125.857 125.186 126.046 125.053 126.255 124.962C126.465 124.871 126.691 124.824 126.919 124.824H127.369L127.051 124.459C126.796 124.167 126.656 123.792 126.656 123.404V122.786C126.656 122.501 126.732 122.22 126.876 121.974C127.021 121.728 127.228 121.525 127.477 121.386L127.732 121.244L127.586 121.096C127.379 120.89 127.234 120.63 127.164 120.346C127.094 120.063 127.104 119.765 127.19 119.486C127.277 119.207 127.439 118.957 127.657 118.764C127.875 118.57 128.142 118.44 128.429 118.388L130.1 118.083C130.135 117.481 130.38 116.911 130.793 116.473C131.205 116.035 131.759 115.757 132.356 115.688L137.132 115.135C139.603 114.693 142.121 114.581 144.621 114.803L145.353 114.868L152.743 113.983V123.895L145.909 124.836L140.153 131.529C139.182 134.352 137.915 137.064 136.371 139.618L136.166 139.958Z" fill="#FFB7B7"/>
<path opacity="0.2" d="M135.539 139.168L135.216 139.023L136.327 136.532L137.629 136.934L137.525 137.273L136.522 136.964L135.539 139.168Z" fill="black"/>
<path d="M122.387 116.079L120.124 84.586L120.554 74.0747L111.735 76.0433L114.984 117.309C114.616 118.07 114.464 118.918 114.543 119.759C114.623 120.601 114.932 121.405 115.437 122.082C115.941 122.76 116.622 123.285 117.404 123.6C118.186 123.916 119.039 124.01 119.87 123.872C120.702 123.733 121.48 123.369 122.118 122.817C122.757 122.265 123.232 121.548 123.492 120.743C123.752 119.939 123.786 119.078 123.591 118.256C123.396 117.433 122.979 116.68 122.387 116.079Z" fill="#FFB7B7"/>
<path d="M79.0206 87.111L78.4599 76.5592L72.8001 71.9458L69.5212 81.7169L51.1826 106.254C50.3155 106.394 49.5065 106.779 48.851 107.366C48.1956 107.952 47.7213 108.714 47.4842 109.562C47.2471 110.41 47.2571 111.309 47.5131 112.152C47.7691 112.994 48.2603 113.746 48.9287 114.317C49.597 114.888 50.4145 115.256 51.2844 115.376C52.1543 115.495 53.0403 115.363 53.8374 114.993C54.6345 114.624 55.3094 114.033 55.7824 113.291C56.2553 112.548 56.5063 111.686 56.5059 110.805C56.5059 110.743 56.4991 110.683 56.4966 110.621L79.0206 87.111Z" fill="#FFB7B7"/>
<path d="M80.0355 83.7331L66.2212 68.9415L76.4786 47.4108C76.686 46.9696 76.9799 46.5749 77.3428 46.2504C77.7058 45.9258 78.1302 45.6779 78.5908 45.5217C79.0437 45.3659 79.5232 45.3034 80.0007 45.3378C80.4782 45.3722 80.9439 45.5029 81.3699 45.722L81.4708 45.7733L80.0355 83.7331Z" fill="#F9A826"/>
<path d="M110.863 81.4023L108.409 66.9701L108.419 66.9337L114.22 44.0548L114.763 43.9914C116.331 43.818 117.906 44.2375 119.182 45.1677C120.457 46.098 121.341 47.4721 121.66 49.0214L127.127 76.3262L110.863 81.4023Z" fill="#F9A826"/>
<path d="M113.988 37.8771H84.6278V24.5692C84.6278 20.6633 86.1745 16.9173 88.9275 14.1554C91.6806 11.3934 95.4145 9.8418 99.3079 9.8418C103.201 9.8418 106.935 11.3934 109.688 14.1554C112.441 16.9173 113.988 20.6633 113.988 24.5692V37.8771Z" fill="#2F2E41"/>
<path d="M151.496 203.642L146.527 207.838L128.032 190.607L135.366 184.415L151.496 203.642Z" fill="#FFB7B7"/>
<path d="M156.817 207.404L140.795 220.932L140.625 220.729C139.233 219.07 138.555 216.924 138.74 214.763C138.925 212.602 139.958 210.604 141.612 209.207L141.612 209.207L151.398 200.944L156.817 207.404Z" fill="#2F2E41"/>
<path d="M77.0168 219.94L70.5226 219.94L67.4327 194.809L77.0182 194.809L77.0168 219.94Z" fill="#FFB7B7"/>
<path d="M78.6733 226.256L57.7321 226.255V225.989C57.7323 223.82 58.5911 221.741 60.1196 220.207C61.6482 218.674 63.7213 217.812 65.883 217.812H65.8835L78.6737 217.813L78.6733 226.256Z" fill="#2F2E41"/>
<path d="M48.534 213.632L51.7668 176.51C53.4065 157.708 57.2651 139.169 63.2616 121.281L76.7989 80.9137L77.9812 71.5129C74.379 64.0192 78.1943 58.3121 78.6337 57.6962L78.1639 48.3578C78.1548 48.1741 78.1416 47.9967 78.1292 47.8255C77.9947 45.9908 78.0926 44.9335 81.6614 44.5373L111.272 43.6214C115.019 43.6058 117.291 44.2306 118.214 45.5632C119.275 47.0967 118.433 49.3188 117.618 51.4678C117.534 51.6914 117.449 51.9149 117.366 52.1384L105.637 83.7326C111.313 94.7404 110.219 111.576 110.207 111.745L110.623 116.724L153.678 187.311L128.221 211.159L128.108 210.973L87.1008 144.075L86.7484 211.502L86.5823 211.511L48.534 213.632Z" fill="#973593"/>
<path d="M109.498 32.0133C112.677 26.1798 110.54 18.8656 104.725 15.6767C98.9104 12.4878 91.6198 14.6317 88.4412 20.4653C85.2626 26.2988 87.3996 33.6129 93.2143 36.8018C99.0291 39.9907 106.32 37.8468 109.498 32.0133Z" fill="#FFB7B7"/>
<path d="M104.762 16.0264C109.174 16.0264 112.75 12.4388 112.75 8.01321C112.75 3.58764 109.174 0 104.762 0C100.351 0 96.7751 3.58764 96.7751 8.01321C96.7751 12.4388 100.351 16.0264 104.762 16.0264Z" fill="#2F2E41"/>
<path d="M115.403 26.8761H86.0429V26.6986C86.0429 22.7927 87.5896 19.0467 90.3426 16.2848C93.0957 13.5228 96.8296 11.9712 100.723 11.9712C104.616 11.9712 108.35 13.5228 111.103 16.2848C113.856 19.0467 115.403 22.7927 115.403 26.6986V26.8761Z" fill="#2F2E41"/>
<path d="M39.2717 115.248C50.9465 115.248 60.4109 105.753 60.4109 94.0404C60.4109 82.3279 50.9465 72.833 39.2717 72.833C27.5968 72.833 18.1325 82.3279 18.1325 94.0404C18.1325 105.753 27.5968 115.248 39.2717 115.248Z" fill="white"/>
<path d="M39.2717 115.603C35.0208 115.603 30.8654 114.338 27.3309 111.969C23.7964 109.599 21.0416 106.232 19.4149 102.292C17.7881 98.3519 17.3625 94.0164 18.1918 89.8337C19.0211 85.651 21.0681 81.809 24.074 78.7935C27.0798 75.7779 30.9095 73.7243 35.0787 72.8923C39.2479 72.0604 43.5694 72.4874 47.4968 74.1194C51.4241 75.7514 54.7808 78.5151 57.1425 82.061C59.5042 85.6069 60.7647 89.7757 60.7647 94.0403C60.7582 99.757 58.4917 105.238 54.4624 109.28C50.4331 113.322 44.97 115.596 39.2717 115.603ZM39.2717 73.1878C35.1607 73.1878 31.1421 74.4108 27.7239 76.7021C24.3058 78.9934 21.6417 82.2501 20.0685 86.0605C18.4953 89.8708 18.0837 94.0635 18.8857 98.1085C19.6877 102.153 21.6673 105.869 24.5742 108.785C27.4811 111.702 31.1847 113.688 35.2167 114.492C39.2487 115.297 43.428 114.884 47.226 113.306C51.0241 111.727 54.2703 109.055 56.5542 105.625C58.8382 102.196 60.0572 98.1646 60.0572 94.0403C60.051 88.5118 57.8591 83.2115 53.9624 79.3023C50.0657 75.393 44.7825 73.194 39.2717 73.1878Z" fill="#3F3D56"/>
<path d="M26.2614 103.907V93.9957L33.0957 93.0547L38.8513 86.3617C39.822 83.538 41.0898 80.8262 42.6334 78.2721L42.839 77.9321L42.9802 77.993C43.0611 78.0278 44.9555 78.8864 44.2749 82.4369L44.2626 82.4761L44.0103 83.0408C43.2693 84.7048 42.907 86.5135 42.9497 88.3355C44.4724 88.3709 52.2776 88.593 53.1912 89.4444C53.4973 89.7285 53.6823 90.1202 53.7076 90.5378L53.7541 91.2844C53.7684 91.5131 53.7358 91.7423 53.6583 91.9579C53.5809 92.1735 53.4603 92.3709 53.3039 92.5379C53.1475 92.7049 52.9586 92.838 52.749 92.929C52.5394 93.02 52.3134 93.067 52.0849 93.067H51.6356L51.9537 93.4317C52.2084 93.7237 52.3488 94.0985 52.3488 94.4865V95.1042C52.3487 95.3899 52.2725 95.6703 52.1281 95.9165C51.9837 96.1627 51.7764 96.3657 51.5276 96.5045L51.2721 96.6469L51.419 96.7942C51.625 97.0009 51.7707 97.2602 51.8404 97.5441C51.91 97.8279 51.9009 98.1255 51.814 98.4045C51.7271 98.6835 51.5658 98.9334 51.3475 99.127C51.1292 99.3206 50.8622 99.4506 50.5756 99.5029L48.9046 99.8077C48.8697 100.409 48.6244 100.98 48.2118 101.418C47.7991 101.856 47.2456 102.134 46.6487 102.203L41.8722 102.755C39.4015 103.198 36.8832 103.309 34.3832 103.088L33.6517 103.023L26.2614 103.907Z" fill="#FFB6B6"/>
<path opacity="0.2" d="M42.6773 81.3582L41.3759 80.9561L41.4799 80.6169L42.482 80.9267L43.4654 78.7222L43.7884 78.867L42.6773 81.3582Z" fill="black"/>
<path d="M200.104 225.71H43.0414C42.9937 225.71 42.948 225.672 42.9143 225.606C42.8806 225.539 42.8617 225.449 42.8617 225.355C42.8617 225.261 42.8806 225.17 42.9143 225.104C42.948 225.037 42.9937 225 43.0414 225H200.104C200.152 225 200.197 225.037 200.231 225.104C200.265 225.17 200.284 225.261 200.284 225.355C200.284 225.449 200.265 225.539 200.231 225.606C200.197 225.672 200.152 225.71 200.104 225.71Z" fill="#CBCBCB"/>
</g>
<defs>
<clipPath id="clip0_18_542">
<rect width="309.93" height="226.495" fill="white"/>
</clipPath>
</defs>
</svg>
