<svg width="161" height="260" viewBox="0 0 161 260" fill="none" xmlns="http://www.w3.org/2000/svg">
<g clip-path="url(#clip0_18_459)">
<path d="M48.6227 49.5292C47.7896 52.8372 45.075 59.4887 45.0511 62.9193L45.2388 62.6768C45.748 63.3265 46.3088 63.934 46.9158 64.4935C47.7168 63.3851 48.7398 62.4558 49.9198 61.7645C49.4273 63.2588 49.2389 64.8365 49.3657 66.4048C51.278 70.4257 57.2226 67.7112 60.7923 66.7585C64.9834 70.4143 69.9561 70.8409 75.9509 67.5966C77.7429 67.5384 79.7363 67.3798 80.8328 66.1672C81.9293 64.9545 76.226 58.7538 76.6935 57.2005C80.0232 46.1363 79.835 47.3397 75.4714 43.1212C74.5111 42.1929 74.3036 40.6409 73.1723 39.7844C71.6027 38.5974 69.4258 38.4626 67.4257 38.3895C67.937 38.3472 68.4287 38.1741 68.8536 37.8867C69.2786 37.5993 69.6224 37.2074 69.8519 36.7486C70.0459 36.2915 70.1098 35.7897 70.0367 35.2986C69.9636 34.8074 69.7562 34.346 69.4375 33.9653C68.5812 32.9017 67.0374 32.4254 65.6135 32.4475C64.2205 32.5414 62.8502 32.8491 61.5508 33.3597C60.6957 33.5926 59.8893 33.9766 59.1696 34.4938C58.8302 34.7388 58.5737 35.0815 58.4343 35.4763C58.2949 35.871 58.2794 36.2989 58.3897 36.7027C58.5581 37.0665 58.8064 37.3877 59.1162 37.6421C59.426 37.8966 59.7892 38.0779 60.1788 38.1724C60.7753 38.3342 61.3906 38.416 62.0087 38.4156C59.1721 38.4328 56.4079 39.3133 54.084 40.94C51.1794 43.0362 49.4603 46.2223 48.6227 49.5292Z" fill="#2F2E41"/>
<path d="M77.4336 56.2546C78.8912 50.1878 75.1546 44.0882 69.0878 42.6306C63.021 41.1731 56.9213 44.9097 55.4638 50.9765C54.0062 57.0433 57.7428 63.143 63.8096 64.6005C69.8764 66.058 75.9761 62.3215 77.4336 56.2546Z" fill="#FFB6B6"/>
<path d="M58.9073 49.0777C59.8231 50.9511 61.7639 51.3311 63.5319 51.4923C64.0896 51.5448 64.6495 51.5883 65.2126 51.6181C65.3807 51.3374 65.5623 51.0599 65.7554 50.7948C66.5564 49.6865 67.5794 48.7571 68.7593 48.0659C68.369 49.2464 68.1708 50.482 68.1725 51.7254C69.2293 51.7348 70.2882 51.7161 71.3491 51.669C72.2613 51.7372 73.1649 51.4523 73.8731 50.8732C74.5813 50.2941 75.0399 49.4651 75.1542 48.5575C76.3202 49.9878 77.648 51.3036 79.2747 51.7136C81.1739 52.1181 78.1691 51.2377 79.1159 49.5425C79.8865 48.2898 80.1952 46.7058 80.3666 45.1942C80.5683 43.3976 80.5394 41.3634 79.53 40.3781C78.7202 39.5797 75.5306 42.1355 74.4454 42.3636C72.0517 42.878 76.6628 41.2269 74.4245 42.219L74.2876 42.6893C74.361 40.2293 73.1778 38.0328 71.4588 37.4281C70.3 37.0251 69.0083 37.2947 67.7564 37.5786C66.1386 37.8725 64.5726 38.4021 63.1086 39.1506C61.4372 40.0688 60.0902 41.4809 59.2521 43.1939C58.3594 45.0546 58.1171 47.4597 58.9073 49.0777Z" fill="#2F2E41"/>
<path d="M69.3973 36.4449C69.2824 36.4273 69.5743 36.4303 69.4754 36.4464C69.5243 36.4369 69.5724 36.4233 69.6191 36.406C69.6271 36.4032 69.7337 36.3525 69.6632 36.3887C69.8227 36.3164 69.9579 36.1995 70.0524 36.052C70.2711 35.6911 70.4275 35.2959 70.5149 34.883C70.6222 34.3385 70.8433 33.8228 71.1638 33.3698C71.2558 33.2484 71.3751 33.1503 71.512 33.0836C71.649 33.0169 71.7997 32.9835 71.952 32.986C72.1043 32.9885 72.2539 33.0268 72.3886 33.098C72.5233 33.1691 72.6393 33.271 72.7272 33.3954C73.0107 33.848 72.8924 34.4693 72.8013 34.9641C72.7077 35.4781 72.5319 35.9736 72.2805 36.4315C71.857 37.1821 71.2243 37.7932 70.4595 38.1905C69.5749 38.655 68.5642 38.8219 67.5772 38.6665C67.4449 38.6316 67.3255 38.5589 67.2337 38.4574C67.142 38.3558 67.0817 38.2297 67.0603 38.0945C67.0389 37.9593 67.0573 37.8208 67.1133 37.6959C67.1692 37.5709 67.2603 37.465 67.3754 37.3909L68.8689 36.5285C68.9472 36.4805 69.0342 36.4485 69.1248 36.4341C69.2155 36.4198 69.3081 36.4234 69.3973 36.4449C69.4866 36.4663 69.5707 36.5051 69.645 36.5591C69.7192 36.6131 69.7821 36.6811 69.8301 36.7594C69.878 36.8377 69.9101 36.9246 69.9245 37.0153C69.9388 37.1059 69.9351 37.1985 69.9137 37.2878C69.8923 37.377 69.8535 37.4612 69.7995 37.5355C69.7455 37.6097 69.6775 37.6726 69.5992 37.7206L68.1056 38.5829L67.9038 37.3072C68.1088 37.3374 68.3166 37.3445 68.5233 37.3285C68.745 37.3206 68.9645 37.2813 69.1752 37.2117C69.3786 37.1564 69.5753 37.0791 69.7619 36.9812C69.8814 36.9182 69.9976 36.8492 70.1101 36.7744C70.1509 36.7472 70.1912 36.7193 70.2311 36.6906C70.2282 36.6926 70.3977 36.5605 70.3238 36.6218C70.5106 36.4632 70.6822 36.2877 70.8364 36.0973C70.8908 36.0298 70.9396 35.958 70.9823 35.8826C71.0573 35.7596 71.1251 35.6324 71.1853 35.5016C71.3065 35.2253 71.3927 34.9351 71.4421 34.6375C71.4659 34.5121 71.4833 34.3854 71.494 34.2581C71.4924 34.1893 71.4956 34.1204 71.5034 34.052C71.5406 33.8864 71.5047 34.1455 71.5815 34.2046L71.9023 34.3798C71.9592 34.3887 72.0175 34.3846 72.0726 34.3679C72.1278 34.3512 72.1785 34.3223 72.221 34.2834C72.249 34.2301 72.2425 34.2392 72.2017 34.3106C72.1543 34.3947 72.1123 34.4816 72.0759 34.571C71.9979 34.7803 71.9306 34.9934 71.8742 35.2095C71.7594 35.6685 71.5959 36.1138 71.3865 36.5381C71.1829 36.9661 70.8495 37.3189 70.4337 37.5462C70.0179 37.7735 69.5409 37.8638 69.0708 37.8041C68.8913 37.7595 68.7366 37.6461 68.64 37.4884C68.5434 37.3307 68.5126 37.1414 68.5544 36.9612C68.601 36.7829 68.7148 36.6296 68.8719 36.5334C69.029 36.4371 69.2173 36.4054 69.3973 36.4449Z" fill="#2F2E41"/>
<path d="M65.2657 249.649L70.4497 249.648L72.9159 229.653H65.2648L65.2657 249.649Z" fill="#FFB6B6"/>
<path d="M72.1746 250.115V246.601L70.8118 246.684L65.2643 247.013L63.9804 247.092L62.9989 258.862L62.9463 259.493H66.6271L66.7454 258.866L67.28 256.018L68.6603 258.866L68.9627 259.493H78.7212C79.3019 259.489 79.8577 259.256 80.2679 258.845C80.6781 258.434 80.9096 257.878 80.9121 257.297C81.324 255.374 73.2087 251.215 72.1746 250.115Z" fill="#2F2E41"/>
<path d="M7.55353 243.402L11.8217 246.343L25.2 231.28L18.9004 226.938L7.55353 243.402Z" fill="#FFB6B6"/>
<path d="M12.9771 247.707L14.9716 244.813L13.8022 244.108L9.04819 241.231L7.94633 240.567L0.45845 249.701L0.0570374 250.19L3.08763 252.279L3.54067 251.83L5.59727 249.789L5.1173 252.917L5.01062 253.605L13.0453 259.143C13.5255 259.47 14.1152 259.593 14.6862 259.488C15.2572 259.382 15.7635 259.056 16.0952 258.579C17.5261 257.229 13.2043 249.199 12.9771 247.707Z" fill="#2F2E41"/>
<path d="M136.656 46.3653C136.255 47.2367 135.53 47.9175 134.635 48.2627C133.74 48.6079 132.746 48.5903 131.864 48.2136C131.686 48.1342 131.515 48.0402 131.352 47.9326L109.099 64.7921L102.106 58.872L130.551 42.7652C131.05 42.1256 131.746 41.669 132.531 41.4667C133.317 41.2644 134.147 41.3277 134.892 41.6468C135.746 42.0217 136.415 42.7202 136.753 43.5886C137.091 44.457 137.071 45.4242 136.696 46.2774C136.683 46.3069 136.669 46.3362 136.656 46.3653Z" fill="#FFB6B6"/>
<path d="M71.3045 93.716C71.3045 93.716 63.44 91.7093 68.9493 81.3816C74.4586 71.0539 95.6479 59.537 97.1145 59.3936C98.5811 59.2502 97.3913 60.6477 99.932 58.3442C101.998 56.4708 102.844 58.2552 102.921 57.3442C103.123 54.9421 106.256 59.0333 105.84 56.0825C105.424 53.1316 112.501 62.6232 112.501 62.6232C112.501 62.6232 112.499 64.3825 108.782 65.8098C106.694 66.6115 105.237 65.9323 105.287 67.7284C105.336 69.5245 101.053 68.8527 100.498 69.2454C99.9436 69.6382 90.5785 82.1168 90.5785 82.1168L71.3045 93.716Z" fill="#973593"/>
<path d="M145.69 81.9217C136.076 79.5287 127.822 74.8248 121.369 67.0597C120.878 66.7584 120.525 66.2742 120.39 65.7134C120.255 65.1527 120.347 64.5611 120.647 64.0685L131.871 45.7015C132.173 45.2096 132.657 44.8573 133.218 44.722C133.778 44.5866 134.37 44.6792 134.863 44.9794L159.183 59.8414C159.675 60.1427 160.027 60.6269 160.162 61.1877C160.298 61.7484 160.205 62.34 159.905 62.8326L148.681 81.1996C148.379 81.6915 147.895 82.0438 147.334 82.1792C146.774 82.3145 146.182 82.2219 145.69 81.9217Z" fill="#FF52EE"/>
<path d="M139.205 76.024C134.143 75.4714 128.882 71.4258 123.57 66.4694C123.109 66.1872 122.779 65.7337 122.652 65.2086C122.525 64.6834 122.612 64.1294 122.893 63.668L132.54 47.8831C132.822 47.4224 133.275 47.0925 133.8 46.9657C134.326 46.8389 134.88 46.9256 135.341 47.2068L156.982 60.4319C157.443 60.7142 157.773 61.1676 157.9 61.6928C158.027 62.218 157.94 62.772 157.659 63.2333L151.683 73.0118C150.426 75.0638 148.406 76.5334 146.067 77.0981C143.727 77.6628 141.26 77.2766 139.205 76.024Z" fill="white"/>
<path d="M148.354 60.1321C148.573 59.2653 147.741 58.3066 146.495 57.9909C145.249 57.6751 144.061 58.1218 143.841 58.9886C143.622 59.8554 144.454 60.8141 145.7 61.1299C146.946 61.4456 148.134 60.9989 148.354 60.1321Z" fill="white"/>
<path d="M133.137 60.034C133.357 59.1672 132.525 58.2085 131.279 57.8927C130.033 57.5769 128.845 58.0236 128.625 58.8905C128.405 59.7573 129.237 60.7159 130.483 61.0317C131.729 61.3475 132.918 60.9008 133.137 60.034Z" fill="#3F3D56"/>
<path d="M151.209 72.7561C151.429 71.8893 150.597 70.9306 149.351 70.6149C148.105 70.2991 146.917 70.7458 146.697 71.6126C146.477 72.4794 147.309 73.4381 148.556 73.7539C149.802 74.0697 150.99 73.623 151.209 72.7561Z" fill="#FF6584"/>
<path d="M154.757 77.5169C154.847 76.7095 154.465 76.0041 153.903 75.9414C153.341 75.8786 152.813 76.4822 152.723 77.2896C152.632 78.097 153.015 78.8023 153.576 78.8651C154.138 78.9279 154.666 78.3242 154.757 77.5169Z" fill="#BED917"/>
<path d="M156.008 87.052C156.098 86.2446 155.716 85.5393 155.154 85.4765C154.592 85.4137 154.064 86.0174 153.974 86.8247C153.883 87.6321 154.266 88.3375 154.827 88.4003C155.389 88.463 155.917 87.8594 156.008 87.052Z" fill="#3F3D56"/>
<path d="M140.451 68.8806C140.541 68.0733 140.159 67.3679 139.597 67.3051C139.036 67.2424 138.507 67.846 138.417 68.6534C138.327 69.4607 138.709 70.1661 139.271 70.2289C139.832 70.2916 140.361 69.688 140.451 68.8806Z" fill="#BED917"/>
<path d="M148.109 66.0037C148.199 65.1963 147.817 64.4909 147.255 64.4282C146.693 64.3654 146.165 64.9691 146.075 65.7764C145.985 66.5838 146.367 67.2892 146.928 67.3519C147.49 67.4147 148.018 66.811 148.109 66.0037Z" fill="#FF6584"/>
<path d="M138.675 58.2312C138.765 57.4239 138.383 56.7185 137.821 56.6557C137.259 56.593 136.731 57.1966 136.641 58.004C136.55 58.8113 136.933 59.5167 137.494 59.5795C138.056 59.6422 138.584 59.0386 138.675 58.2312Z" fill="#3F3D56"/>
<path d="M90.9402 136.963L91.0738 135.561L85.308 119.753L60.7362 124.491C60.7362 124.491 48.0722 140.092 50.8883 150.418C51.6521 153.219 42.0425 171.818 45.2051 169.812C48.3678 167.806 41.9157 173.39 43.5681 173.52C45.2205 173.651 42.6256 175.598 42.1341 176.659C30.8155 201.106 12.7138 233.025 12.7138 233.025C12.7138 233.025 16.4786 243.609 22.4188 237.691C28.3591 231.774 68.0981 179.206 68.0981 179.206C68.0981 179.206 67.5626 182.628 66.8157 187.832C64.5084 203.907 60.8841 236.27 64.1042 237.946C66.675 239.277 69.5533 239.9 72.4443 239.752C72.4443 239.752 93.7564 190.47 90.9402 181.083" fill="#2F2E41"/>
<path d="M76.4114 71.0325L74.1245 66.2788L61.7343 67.7799L60.4532 71.6583C56.8625 75.2455 53.9048 79.4145 51.7054 83.9887C48.277 91.3126 59.6871 123.664 57.8097 125.542C55.9322 127.419 48.9759 128.431 52.1049 130.731C55.234 133.031 52.1049 131.56 51.3251 134.184C50.5453 136.808 49.0099 147.252 49.0099 147.252C49.0099 147.252 60.9225 157.238 68.4323 142.219C79.384 143.157 81.5743 132.831 81.5743 132.831L85.2561 126.733C90.0331 124.547 82.6695 99.507 84.5469 94.5005C86.4244 89.494 76.4114 71.0325 76.4114 71.0325Z" fill="#973593"/>
<path d="M87.7348 124.635C87.7632 122.796 87.7576 120.816 88.5742 119.121C89.1876 117.848 90.326 116.577 91.8261 116.471C93.1016 116.38 94.5494 117.134 94.6668 118.521C94.8063 120.169 93.4187 121.743 92.2951 122.784C90.9377 124.03 89.2849 124.911 87.4929 125.342C87.3672 125.38 87.2551 125.454 87.1702 125.554C87.0852 125.654 87.031 125.776 87.014 125.906C86.997 126.037 87.0179 126.169 87.0743 126.287C87.1306 126.406 87.2201 126.506 87.3317 126.575C88.7586 127.364 90.0198 128.421 91.0462 129.688C91.9941 130.859 92.9741 132.405 93.1742 133.928C93.2594 134.577 93.1443 135.367 92.457 135.638C91.8043 135.895 91.0101 135.56 90.4501 135.228C89.1327 134.352 88.1004 133.109 87.4804 131.653C86.715 130.004 86.4573 128.164 86.7399 126.368C86.879 125.519 85.5795 125.154 85.4392 126.01C84.8212 129.781 86.3259 134.271 89.6996 136.35C91.2347 137.296 93.5763 137.462 94.347 135.466C95.0452 133.657 93.89 131.484 92.9246 129.997C91.6864 128.09 89.9999 126.515 88.0125 125.41L87.8514 126.643C89.8101 126.161 91.6196 125.203 93.1198 123.855C94.5553 122.566 96.101 120.652 96.0213 118.609C95.9497 116.773 94.4826 115.442 92.7238 115.173C90.8115 114.881 89.1051 115.923 88.0093 117.434C86.5064 119.506 86.4239 122.175 86.3859 124.635C86.392 124.81 86.4657 124.975 86.5915 125.097C86.7174 125.218 86.8854 125.286 87.0603 125.286C87.2352 125.286 87.4033 125.218 87.5291 125.097C87.6549 124.975 87.7287 124.81 87.7348 124.635Z" fill="#2F2E41"/>
<path d="M32.9571 150.391C33.8077 149.947 34.4518 149.19 34.7524 148.279C35.053 147.368 34.9863 146.376 34.5665 145.514C34.4784 145.34 34.3761 145.173 34.2606 145.016L50 121.957L43.7416 115.266L29.0599 144.472C28.4457 145.001 28.024 145.719 27.8608 146.513C27.6975 147.308 27.8018 148.134 28.1573 148.863C28.3636 149.275 28.6492 149.643 28.9977 149.946C29.3463 150.248 29.751 150.479 30.1887 150.625C30.6265 150.771 31.0887 150.829 31.549 150.797C32.0093 150.764 32.4586 150.641 32.8714 150.435C32.9002 150.42 32.9288 150.406 32.9571 150.391Z" fill="#FFB6B6"/>
<path d="M77.0212 82.7798C77.0212 82.7798 74.6284 75.024 64.5855 81.0369C54.5426 87.0497 44.0868 108.782 44.016 110.254C43.9453 111.726 45.2823 110.469 43.1071 113.12C41.338 115.276 43.1621 116.033 42.256 116.155C39.8669 116.475 44.1078 119.402 41.14 119.132C38.1722 118.863 48.0019 125.462 48.0019 125.462C48.0019 125.462 49.7589 125.373 51.0008 121.59C51.6983 119.465 50.9481 118.044 52.7444 118.004C54.5407 117.965 53.6581 113.721 54.0229 113.147C54.3878 112.573 66.3885 102.603 66.3885 102.603L77.0212 82.7798Z" fill="#973593"/>
<path d="M61.3039 44.5169C68.6884 36.0007 55.5616 58.5493 65.3681 67.3397C61.3713 70.5109 46.711 69.3858 47.5394 67.3397C48.3678 65.2935 51.0832 45.7714 53.9968 44.5169C56.9104 43.2624 61.3039 44.5169 61.3039 44.5169Z" fill="#2F2E41"/>
<path d="M51.2371 151.404C51.4568 150.537 50.6247 149.578 49.3787 149.262C48.1327 148.947 46.9444 149.393 46.7248 150.26C46.5051 151.127 47.3372 152.086 48.5832 152.401C49.8292 152.717 51.0174 152.27 51.2371 151.404Z" fill="white"/>
<path d="M36.0205 151.305C36.2402 150.439 35.4081 149.48 34.1621 149.164C32.9161 148.848 31.7279 149.295 31.5082 150.162C31.2885 151.029 32.1206 151.987 33.3666 152.303C34.6126 152.619 35.8008 152.172 36.0205 151.305Z" fill="#3F3D56"/>
<path d="M41.558 149.503C41.6482 148.696 41.266 147.99 40.7043 147.928C40.1427 147.865 39.6142 148.469 39.524 149.276C39.4338 150.083 39.816 150.789 40.3776 150.851C40.9393 150.914 41.4677 150.311 41.558 149.503Z" fill="#3F3D56"/>
<path d="M140.71 128.923C140.93 128.056 140.098 127.097 138.852 126.781C137.606 126.466 136.418 126.912 136.198 127.779C135.978 128.646 136.81 129.605 138.056 129.92C139.303 130.236 140.491 129.789 140.71 128.923Z" fill="white"/>
<path d="M125.494 128.825C125.713 127.958 124.881 126.999 123.635 126.684C122.389 126.368 121.201 126.815 120.981 127.681C120.762 128.548 121.594 129.507 122.84 129.823C124.086 130.139 125.274 129.692 125.494 128.825Z" fill="#3F3D56"/>
<path d="M143.566 141.547C143.785 140.68 142.953 139.722 141.707 139.406C140.461 139.09 139.273 139.537 139.053 140.404C138.834 141.27 139.666 142.229 140.912 142.545C142.158 142.861 143.346 142.414 143.566 141.547Z" fill="#FF6584"/>
<path d="M147.113 146.308C147.203 145.501 146.821 144.795 146.259 144.732C145.698 144.67 145.169 145.273 145.079 146.081C144.989 146.888 145.371 147.593 145.933 147.656C146.494 147.719 147.023 147.115 147.113 146.308Z" fill="#BED917"/>
<path d="M148.364 155.843C148.454 155.036 148.072 154.33 147.511 154.268C146.949 154.205 146.421 154.808 146.33 155.616C146.24 156.423 146.622 157.129 147.184 157.191C147.746 157.254 148.274 156.65 148.364 155.843Z" fill="#3F3D56"/>
<path d="M132.807 137.672C132.898 136.864 132.515 136.159 131.954 136.096C131.392 136.033 130.864 136.637 130.773 137.444C130.683 138.252 131.065 138.957 131.627 139.02C132.189 139.083 132.717 138.479 132.807 137.672Z" fill="#BED917"/>
<path d="M140.465 134.795C140.555 133.987 140.173 133.282 139.612 133.219C139.05 133.156 138.521 133.76 138.431 134.567C138.341 135.375 138.723 136.08 139.285 136.143C139.847 136.206 140.375 135.602 140.465 134.795Z" fill="#FF6584"/>
<path d="M131.031 127.022C131.121 126.215 130.739 125.509 130.178 125.447C129.616 125.384 129.088 125.988 128.997 126.795C128.907 127.602 129.289 128.308 129.851 128.37C130.413 128.433 130.941 127.83 131.031 127.022Z" fill="#3F3D56"/>
<path d="M19.7641 61.4808C19.9837 60.6139 19.1517 59.6553 17.9057 59.3395C16.6596 59.0237 15.4714 59.4704 15.2518 60.3372C15.0321 61.204 15.8641 62.1627 17.1102 62.4785C18.3562 62.7943 19.5444 62.3476 19.7641 61.4808Z" fill="white"/>
<path d="M4.54748 61.3826C4.76715 60.5158 3.93512 59.5571 2.68908 59.2413C1.44304 58.9256 0.254845 59.3723 0.0351734 60.2391C-0.184498 61.1059 0.647534 62.0646 1.89357 62.3804C3.13961 62.6961 4.32781 62.2494 4.54748 61.3826Z" fill="#3F3D56"/>
<path d="M22.6196 74.1053C22.8392 73.2384 22.0072 72.2798 20.7612 71.964C19.5151 71.6482 18.3269 72.0949 18.1073 72.9617C17.8876 73.8286 18.7196 74.7872 19.9657 75.103C21.2117 75.4188 22.3999 74.9721 22.6196 74.1053Z" fill="#FF6584"/>
<path d="M26.1667 78.8655C26.2569 78.0581 25.8747 77.3528 25.3131 77.29C24.7514 77.2272 24.223 77.8309 24.1328 78.6382C24.0426 79.4456 24.4248 80.151 24.9864 80.2137C25.5481 80.2765 26.0765 79.6729 26.1667 78.8655Z" fill="#BED917"/>
<path d="M27.418 88.4011C27.5082 87.5938 27.126 86.8884 26.5644 86.8256C26.0027 86.7629 25.4743 87.3665 25.3841 88.1739C25.2939 88.9812 25.676 89.6866 26.2377 89.7494C26.7993 89.8121 27.3278 89.2085 27.418 88.4011Z" fill="#3F3D56"/>
<path d="M11.8612 70.2293C11.9514 69.4219 11.5692 68.7165 11.0076 68.6538C10.4459 68.591 9.9175 69.1946 9.82729 70.002C9.73707 70.8094 10.1192 71.5147 10.6809 71.5775C11.2425 71.6403 11.771 71.0366 11.8612 70.2293Z" fill="#BED917"/>
<path d="M19.5189 67.3523C19.6091 66.5449 19.2269 65.8396 18.6653 65.7768C18.1036 65.7141 17.5752 66.3177 17.485 67.1251C17.3948 67.9324 17.7769 68.6378 18.3386 68.7005C18.9002 68.7633 19.4287 68.1597 19.5189 67.3523Z" fill="#FF6584"/>
<path d="M10.0849 59.5803C10.1751 58.773 9.79293 58.0676 9.23128 58.0048C8.66963 57.9421 8.1412 58.5457 8.05098 59.3531C7.96077 60.1604 8.34294 60.8658 8.90459 60.9286C9.46624 60.9913 9.99469 60.3877 10.0849 59.5803Z" fill="#3F3D56"/>
<path d="M91.2528 3.48026C91.4725 2.61345 90.6404 1.65477 89.3944 1.339C88.1484 1.02322 86.9602 1.46993 86.7405 2.33674C86.5208 3.20356 87.3529 4.16224 88.5989 4.47801C89.8449 4.79379 91.0331 4.34708 91.2528 3.48026Z" fill="white"/>
<path d="M76.0362 3.38261C76.2559 2.51579 75.4239 1.55711 74.1778 1.24134C72.9318 0.925564 71.7436 1.37227 71.5239 2.23909C71.3042 3.1059 72.1363 4.06458 73.3823 4.38035C74.6284 4.69613 75.8165 4.24942 76.0362 3.38261Z" fill="#3F3D56"/>
<path d="M94.1082 16.1048C94.3279 15.238 93.4959 14.2793 92.2498 13.9635C91.0038 13.6477 89.8156 14.0944 89.5959 14.9613C89.3763 15.8281 90.2083 16.7867 91.4543 17.1025C92.7004 17.4183 93.8886 16.9716 94.1082 16.1048Z" fill="#FF6584"/>
<path d="M97.6555 20.8655C97.7457 20.0581 97.3635 19.3528 96.8019 19.29C96.2402 19.2272 95.7118 19.8309 95.6216 20.6382C95.5314 21.4456 95.9135 22.151 96.4752 22.2137C97.0368 22.2765 97.5653 21.6729 97.6555 20.8655Z" fill="#BED917"/>
<path d="M98.9067 30.4006C98.9969 29.5933 98.6148 28.8879 98.0531 28.8251C97.4915 28.7624 96.963 29.366 96.8728 30.1734C96.7826 30.9807 97.1648 31.6861 97.7264 31.7489C98.2881 31.8116 98.8165 31.208 98.9067 30.4006Z" fill="#3F3D56"/>
<path d="M83.3498 12.2293C83.4401 11.4219 83.0579 10.7165 82.4962 10.6538C81.9346 10.591 81.4061 11.1946 81.3159 12.002C81.2257 12.8094 81.6079 13.5147 82.1695 13.5775C82.7312 13.6403 83.2596 13.0366 83.3498 12.2293Z" fill="#BED917"/>
<path d="M91.0076 9.35232C91.0978 8.54495 90.7157 7.83958 90.154 7.77682C89.5924 7.71406 89.0639 8.31768 88.9737 9.12505C88.8835 9.93242 89.2657 10.6378 89.8273 10.7005C90.389 10.7633 90.9174 10.1597 91.0076 9.35232Z" fill="#FF6584"/>
<path d="M81.5737 1.57985C81.6639 0.772488 81.2817 0.0671157 80.7201 0.00435827C80.1584 -0.0583991 79.63 0.545224 79.5398 1.35259C79.4496 2.15996 79.8317 2.86533 80.3934 2.92809C80.955 2.99084 81.4835 2.38722 81.5737 1.57985Z" fill="#3F3D56"/>
<path d="M110.356 252.207C110.565 252.216 110.772 252.162 110.948 252.05C111.125 251.938 111.263 251.774 111.344 251.581C111.425 251.388 111.444 251.175 111.4 250.971C111.355 250.766 111.249 250.58 111.095 250.438L111.025 250.16C111.035 250.138 111.044 250.116 111.053 250.094C111.264 249.596 111.617 249.172 112.067 248.875C112.518 248.578 113.047 248.42 113.587 248.422C114.127 248.424 114.654 248.585 115.103 248.886C115.551 249.187 115.901 249.614 116.108 250.112C116.934 252.103 117.987 254.098 118.246 256.203C118.36 257.133 118.312 258.077 118.103 258.991C120.045 254.755 121.053 250.152 121.06 245.493C121.06 244.324 120.995 243.156 120.865 241.994C120.758 241.041 120.609 240.095 120.418 239.156C119.377 234.062 117.143 229.287 113.898 225.223C112.328 224.366 111.058 223.049 110.26 221.448C109.97 220.872 109.766 220.258 109.653 219.624C109.83 219.647 110.321 216.95 110.187 216.784C110.434 216.409 110.876 216.223 111.145 215.858C112.486 214.04 114.334 214.357 115.298 216.828C117.358 217.867 117.378 219.592 116.114 221.25C115.31 222.306 115.199 223.733 114.494 224.863C114.566 224.956 114.642 225.046 114.715 225.139C116.042 226.845 117.198 228.678 118.168 230.61C117.932 228.445 118.214 226.256 118.989 224.221C119.775 222.325 121.248 220.728 122.546 219.089C122.889 218.649 123.355 218.32 123.885 218.144C124.415 217.969 124.985 217.954 125.523 218.103C126.061 218.251 126.543 218.555 126.909 218.978C127.274 219.4 127.505 219.921 127.574 220.475C127.577 220.499 127.58 220.523 127.582 220.548C127.389 220.656 127.201 220.772 127.016 220.894C126.784 221.049 126.605 221.27 126.501 221.529C126.397 221.788 126.374 222.072 126.434 222.344C126.494 222.616 126.635 222.864 126.839 223.055C127.042 223.245 127.299 223.37 127.574 223.412L127.602 223.417C127.534 224.111 127.412 224.8 127.239 225.476C128.904 231.912 125.311 234.257 120.18 234.362C120.067 234.42 119.956 234.478 119.843 234.533C120.817 237.294 121.428 240.17 121.661 243.088C121.793 244.81 121.785 246.54 121.638 248.26L121.646 248.2C122.018 246.286 123.039 244.56 124.536 243.312C126.759 241.485 129.901 240.813 132.3 239.345C132.555 239.181 132.851 239.094 133.154 239.093C133.457 239.092 133.754 239.178 134.01 239.34C134.266 239.503 134.47 239.735 134.598 240.01C134.726 240.284 134.773 240.59 134.733 240.89L134.723 240.954C134.365 241.1 134.017 241.267 133.681 241.456C133.488 241.565 133.299 241.681 133.115 241.803C132.883 241.958 132.703 242.179 132.599 242.438C132.495 242.696 132.472 242.98 132.532 243.253C132.593 243.525 132.734 243.773 132.937 243.963C133.141 244.154 133.397 244.279 133.673 244.321L133.701 244.326C133.721 244.328 133.739 244.331 133.759 244.334C133.148 245.793 132.29 247.136 131.224 248.304C130.183 253.923 125.713 254.456 120.932 252.82H120.929C120.404 255.099 119.644 257.318 118.661 259.441H110.559C110.53 259.351 110.504 259.258 110.478 259.168C111.228 259.215 111.98 259.17 112.719 259.034C112.118 258.297 111.517 257.553 110.916 256.816C110.903 256.802 110.89 256.787 110.878 256.772C110.573 256.395 110.266 256.02 109.961 255.642L109.96 255.642C109.944 254.485 110.077 253.33 110.356 252.207Z" fill="#2DF459"/>
<path d="M19.7354 259.465C19.7352 259.536 19.7489 259.605 19.7757 259.67C19.8025 259.735 19.8419 259.794 19.8917 259.844C19.9414 259.894 20.0005 259.933 20.0655 259.96C20.1305 259.987 20.2002 260 20.2705 260H134.153C134.295 260 134.431 259.944 134.532 259.844C134.632 259.743 134.688 259.607 134.688 259.465C134.688 259.323 134.632 259.187 134.532 259.087C134.431 258.987 134.295 258.93 134.153 258.93H20.2705C20.2002 258.93 20.1305 258.944 20.0655 258.97C20.0005 258.997 19.9414 259.037 19.8917 259.086C19.8419 259.136 19.8025 259.195 19.7757 259.26C19.7489 259.325 19.7352 259.395 19.7354 259.465Z" fill="#CCCCCC"/>
</g>
<defs>
<clipPath id="clip0_18_459">
<rect width="160.223" height="260" fill="white"/>
</clipPath>
</defs>
</svg>
