<svg width="263" height="223" viewBox="0 0 263 223" fill="none" xmlns="http://www.w3.org/2000/svg">
<g clip-path="url(#clip0_18_397)">
<path d="M140.594 31.2298C149.315 24.7878 161.592 22.3182 171.199 27.3439C160.384 32.0396 151.579 40.4093 146.341 50.9722C144.335 55.0532 142.53 59.801 138.393 61.6872C135.818 62.8608 132.78 62.6342 130.114 61.6865C127.448 60.7388 125.077 59.1289 122.738 57.536L122.037 57.4515C126.199 47.44 131.874 37.6718 140.594 31.2298Z" fill="#2DF459"/>
<path d="M171.121 27.5578C162.152 27.8388 153.499 30.9389 146.391 36.4178C144.84 37.5701 143.48 38.9597 142.362 40.5354C141.322 42.1055 140.722 43.9255 140.624 45.8061C140.497 47.5577 140.569 49.3642 140.019 51.0545C139.724 51.9155 139.251 52.7045 138.629 53.3697C138.008 54.0349 137.254 54.5614 136.415 54.9145C134.348 55.8487 132.069 55.9845 129.835 56.0399C127.355 56.1013 124.778 56.1258 122.522 57.2937C122.249 57.4352 122.045 57.0028 122.318 56.8615C126.242 54.8298 130.828 56.1554 134.953 54.9462C136.877 54.3819 138.643 53.2342 139.416 51.3141C140.092 49.6349 140.018 47.772 140.132 45.9973C140.201 44.1613 140.719 42.3702 141.64 40.7804C142.674 39.1528 143.978 37.7132 145.495 36.523C148.869 33.7892 152.651 31.6029 156.704 30.044C161.32 28.2393 166.21 27.2374 171.163 27.0817C171.47 27.0722 171.426 27.5483 171.121 27.5578Z" fill="white"/>
<path d="M148.576 34.5186C147.819 33.2013 147.554 31.6577 147.83 30.1635C148.105 28.6693 148.903 27.3217 150.081 26.3614C150.32 26.1679 150.632 26.5301 150.392 26.7238C149.294 27.616 148.551 28.8714 148.297 30.2633C148.043 31.6553 148.296 33.0922 149.008 34.3146C149.163 34.5804 148.73 34.7829 148.576 34.5186Z" fill="white"/>
<path d="M140.572 44.9093C143.563 45.7454 146.76 45.4233 149.524 44.0072C149.798 43.8667 150.002 44.299 149.728 44.4393C146.849 45.9076 143.521 46.236 140.41 45.3591C140.114 45.2753 140.277 44.8259 140.572 44.9093Z" fill="white"/>
<path d="M161.297 28.8724C161.484 29.4431 161.81 29.9585 162.245 30.3723C162.68 30.7861 163.211 31.0852 163.791 31.243C164.088 31.323 163.925 31.7723 163.63 31.6928C162.99 31.5155 162.404 31.1844 161.922 30.7283C161.44 30.2722 161.077 29.705 160.865 29.0764C160.84 29.0188 160.838 28.9538 160.859 28.8948C160.88 28.8357 160.923 28.7869 160.979 28.7583C161.036 28.7316 161.102 28.7286 161.162 28.7499C161.221 28.7713 161.27 28.8153 161.297 28.8724Z" fill="white"/>
<path d="M178.816 63.2535C178.629 63.2088 178.442 63.1642 178.251 63.1221C175.733 62.5347 173.17 62.1528 170.59 61.9802C170.391 61.9637 170.188 61.95 169.989 61.9393C163.767 61.5899 157.535 62.3986 151.609 64.3244C149.251 65.0929 146.956 66.0396 144.742 67.1563C141.684 68.6988 138.492 70.6145 135.201 71.0442C134.858 71.0929 134.512 71.1203 134.166 71.1263L121.989 58.3134C121.976 58.2704 121.96 58.23 121.946 58.1869L121.437 57.6975C121.547 57.6319 121.663 57.5663 121.773 57.5007C121.837 57.4624 121.903 57.427 121.967 57.3887C122.01 57.3641 122.054 57.3395 122.091 57.3148C122.106 57.3066 122.12 57.2985 122.132 57.293C122.169 57.2683 122.207 57.2493 122.242 57.2274C122.887 56.8587 123.537 56.4939 124.19 56.133C124.192 56.1302 124.192 56.1302 124.198 56.1303C129.18 53.3931 134.434 51.0477 139.877 49.5745C140.041 49.5302 140.208 49.483 140.377 49.4446C142.834 48.7941 145.341 48.3455 147.871 48.1034C149.257 47.9752 150.648 47.9173 152.04 47.9299C155.636 47.9693 159.204 48.5741 162.612 49.7221C169.406 52.0116 175.392 56.4484 178.577 62.7683C178.659 62.93 178.737 63.089 178.816 63.2535Z" fill="#2DF459"/>
<path d="M178.625 63.3795C171.294 58.2035 162.519 55.469 153.546 55.5645C151.613 55.5507 149.691 55.8416 147.85 56.4264C146.074 57.0541 144.499 58.1458 143.288 59.588C142.132 60.9101 141.102 62.3963 139.645 63.4144C138.891 63.9244 138.038 64.2693 137.142 64.4266C136.246 64.5838 135.326 64.5498 134.444 64.3268C132.231 63.8282 130.329 62.5642 128.512 61.2635C126.495 59.8194 124.423 58.2874 121.919 57.8618C121.615 57.8102 121.713 57.3425 122.016 57.394C126.373 58.1344 129.236 61.9538 133.257 63.4716C135.134 64.1798 137.235 64.3268 139.008 63.2589C140.558 62.325 141.621 60.7933 142.78 59.4446C143.941 58.0203 145.433 56.9019 147.125 56.187C148.931 55.5103 150.839 55.1459 152.767 55.1093C157.107 54.9576 161.443 55.4892 165.617 56.6846C170.389 58.0224 174.897 60.1667 178.946 63.0247C179.196 63.2017 178.874 63.5553 178.625 63.3795Z" fill="white"/>
<path d="M156.433 55.3635C156.621 53.8558 157.339 52.4641 158.459 51.437C159.579 50.4099 161.027 49.8143 162.546 49.7565C162.853 49.7459 162.884 50.2228 162.576 50.2335C161.162 50.2847 159.813 50.8397 158.772 51.7982C157.732 52.7568 157.068 54.0558 156.901 55.4608C156.864 55.7661 156.396 55.6671 156.433 55.3635Z" fill="white"/>
<path d="M143.786 58.8404C145.671 61.3091 148.417 62.9765 151.477 63.5103C151.78 63.5629 151.682 64.0307 151.38 63.9781C148.197 63.4167 145.342 61.6757 143.386 59.1024C143.2 58.857 143.6 58.5963 143.786 58.8404Z" fill="white"/>
<path d="M169.989 58.5138C169.795 59.082 169.745 59.6896 169.843 60.282C169.942 60.8744 170.186 61.4331 170.553 61.9079C170.743 62.1508 170.342 62.4113 170.154 62.1699C169.75 61.6435 169.481 61.0261 169.371 60.3718C169.261 59.7175 169.313 59.0462 169.522 58.4165C169.536 58.3555 169.574 58.3024 169.626 58.268C169.679 58.2336 169.742 58.2204 169.804 58.2312C169.866 58.2444 169.92 58.2815 169.955 58.3344C169.99 58.3873 170.002 58.4518 169.989 58.5138Z" fill="white"/>
<path d="M138.293 40.8134H137.35V14.9621C137.35 12.9972 136.963 11.0516 136.211 9.23633C135.459 7.42105 134.357 5.77165 132.967 4.38229C131.578 2.99293 129.929 1.89084 128.113 1.13892C126.298 0.387009 124.352 1.05926e-06 122.388 0H67.6181C65.6532 -4.23686e-06 63.7076 0.386996 61.8924 1.13891C60.0771 1.89082 58.4277 2.99291 57.0383 4.38226C55.6489 5.77161 54.5469 7.42102 53.7949 9.2363C53.043 11.0516 52.656 12.9972 52.656 14.962V156.785C52.656 160.753 54.2324 164.558 57.0383 167.364C59.8442 170.17 63.6498 171.747 67.618 171.747H122.387C126.356 171.747 130.161 170.17 132.967 167.364C135.773 164.558 137.35 160.753 137.35 156.785V59.2149H138.293V40.8134Z" fill="#3F3D56"/>
<path d="M122.991 3.89259H115.842C116.171 4.69864 116.296 5.57317 116.207 6.43915C116.118 7.30513 115.818 8.13598 115.333 8.8585C114.847 9.58101 114.191 10.173 113.423 10.5824C112.655 10.9918 111.797 11.2059 110.927 11.206H79.5502C78.6797 11.2059 77.8226 10.9918 77.0543 10.5824C76.286 10.173 75.6302 9.58102 75.1447 8.8585C74.6591 8.13598 74.3587 7.30513 74.2698 6.43915C74.181 5.57317 74.3065 4.69863 74.6353 3.89258H67.9579C64.9945 3.89258 62.1525 5.06978 60.0571 7.16522C57.9616 9.26066 56.7844 12.1027 56.7844 15.0661V156.681C56.7844 158.148 57.0734 159.601 57.635 160.957C58.1965 162.312 59.0195 163.544 60.0571 164.582C61.0946 165.619 62.3264 166.442 63.682 167.004C65.0376 167.565 66.4906 167.854 67.9579 167.854H122.991C124.458 167.854 125.911 167.565 127.267 167.004C128.623 166.442 129.854 165.619 130.892 164.582C131.93 163.544 132.753 162.312 133.314 160.957C133.876 159.601 134.165 158.148 134.165 156.681V15.0661C134.165 12.1027 132.987 9.26065 130.892 7.16522C128.797 5.06979 125.954 3.89259 122.991 3.89259Z" fill="white"/>
<path d="M96.5321 122.362C92.4795 122.366 88.466 121.57 84.7212 120.021C80.9764 118.472 77.5738 116.2 74.7082 113.334C71.8426 110.468 69.5703 107.066 68.0212 103.321C66.4721 99.5762 65.6766 95.5627 65.6804 91.5101C65.6746 85.8195 67.2452 80.2384 70.2178 75.3859C73.1904 70.5334 77.4489 66.5991 82.5211 64.0192C86.1978 62.1487 90.2117 61.0328 94.3263 60.7375C98.4409 60.4422 102.573 60.9734 106.479 62.2997C113.397 64.6572 119.253 69.3936 123.005 75.6655C126.757 81.9374 128.161 89.3374 126.967 96.5477C125.773 103.758 122.059 110.31 116.485 115.038C110.911 119.765 103.84 122.361 96.5321 122.362ZM96.5321 61.8681C91.8517 61.8543 87.2361 62.9614 83.0712 65.0968C79.4307 66.9516 76.2129 69.5389 73.6198 72.6964C71.0268 75.8539 69.1145 79.5134 68.003 83.4451C66.8915 87.3768 66.6048 91.4958 67.1609 95.5436C67.7169 99.5914 69.1038 103.481 71.2344 106.967C73.3649 110.453 76.1932 113.461 79.5417 115.803C82.8901 118.144 86.6864 119.768 90.6922 120.572C94.698 121.376 98.8269 121.344 102.82 120.477C106.812 119.609 110.583 117.926 113.894 115.532C115.495 114.377 116.975 113.064 118.312 111.612C122.224 107.379 124.816 102.099 125.772 96.4154C126.729 90.7323 126.007 84.8937 123.695 79.6146C121.384 74.3356 117.583 69.8451 112.758 66.693C107.934 63.541 102.295 61.8642 96.5321 61.8681Z" fill="#F0F0F0"/>
<path d="M29.6809 64.1301C30.5277 64.2362 31.341 64.5268 32.0634 64.9813C32.7858 65.4358 33.3998 66.0431 33.862 66.7606C34.3243 67.478 34.6237 68.2881 34.739 69.1337C34.8544 69.9794 34.7829 70.84 34.5296 71.6551L44.7801 80.1934L41.1107 87.6882L26.8043 75.427C25.4633 74.9108 24.3583 73.9206 23.6986 72.6441C23.0389 71.3675 22.8703 69.8933 23.2249 68.5008C23.5795 67.1084 24.4325 65.8943 25.6224 65.0887C26.8123 64.2832 28.2563 63.9421 29.6809 64.1301Z" fill="#FFB6B6"/>
<path d="M125.416 99.7372C125.21 97.5273 124.36 93.5546 123.639 92.0857C121.422 86.2832 107.098 81.5142 105.174 80.8994L104.686 75.4751L84.7841 73.3337L82.2594 80.2703L75.1213 82.9481C74.6366 83.1289 74.198 83.4146 73.8368 83.7848C73.4756 84.1551 73.2008 84.6007 73.0321 85.0896L66.6279 86.9407L60.3084 88.7676L38.3533 73.2974L37.3168 73.9749L30.3884 78.4958L29.3195 79.1935L57.7313 104.827L68.2854 102.351L76.2222 100.483L76.8996 103.234L75.1455 112.897C80.2278 117.981 86.9554 121.088 94.1214 121.661C101.287 122.234 108.423 120.234 114.248 116.022L118.757 112.021C121.9 108.624 124.219 104.549 125.536 100.112L125.416 99.7372Z" fill="#973593"/>
<path d="M100.989 68.8977C108.502 66.4102 112.576 58.3031 110.088 50.79C107.601 43.2768 99.4937 39.2028 91.9807 41.6903C84.4676 44.1778 80.3935 52.2849 82.881 59.7981C85.3686 67.3112 93.4756 71.3853 100.989 68.8977Z" fill="#FFB6B6"/>
<path d="M85.1659 38.9575C86.559 36.968 88.6496 35.5754 91.0223 35.0566C93.3682 34.574 95.8099 35.0219 97.8319 36.3056C100.031 35.4199 102.401 34.8323 104.73 35.131C107.06 35.4297 109.342 36.7307 110.42 38.8741C110.647 39.4293 110.922 39.9635 111.242 40.4706C112.192 41.7374 113.956 41.9017 115.514 41.9625C114.727 42.4221 113.939 42.8816 113.15 43.341C113.936 43.7069 114.721 44.0729 115.507 44.4389C114.438 44.8469 113.369 45.255 112.3 45.663C114.788 47.8498 115.39 51.7415 114.447 55.0044C113.556 58.0935 111.511 60.694 109.228 62.9204C108.782 61.2591 109.272 59.4581 109.599 57.7382C109.943 55.921 109.999 53.796 108.726 52.513C107.868 51.6476 106.609 51.3861 105.422 51.1761C99.4331 50.117 93.3893 49.3994 87.3193 49.0267C86.5069 48.9144 85.6794 48.9989 84.9065 49.273C83.4293 49.9294 82.8358 51.7321 82.4078 53.3305C82.2027 50.5249 82.3665 47.7045 82.895 44.9414C83.3 42.8267 83.9379 40.7101 85.1659 38.9575Z" fill="#2F2E41"/>
<path d="M103.791 136.898H86.8528C86.2646 136.898 85.7004 136.664 85.2844 136.248C84.8684 135.832 84.6347 135.268 84.6347 134.68C84.6347 134.091 84.8684 133.527 85.2844 133.111C85.7004 132.695 86.2646 132.461 86.8528 132.461H103.791C104.379 132.461 104.943 132.695 105.359 133.111C105.775 133.527 106.009 134.091 106.009 134.68C106.009 135.268 105.775 135.832 105.359 136.248C104.943 136.664 104.379 136.898 103.791 136.898Z" fill="#F9A826"/>
<path d="M48.2103 18.1984H1.62034C1.19101 18.1978 0.779495 18.0267 0.476155 17.7229C0.172815 17.4191 0.00244141 17.0073 0.00244141 16.578C0.00244141 16.1486 0.172815 15.7369 0.476155 15.433C0.779495 15.1292 1.19101 14.9582 1.62034 14.9575H48.2103C48.6401 14.9575 49.0522 15.1282 49.3561 15.4321C49.66 15.736 49.8308 16.1482 49.8308 16.578C49.8308 17.0077 49.66 17.4199 49.3561 17.7238C49.0522 18.0277 48.6401 18.1984 48.2103 18.1984Z" fill="#F9A826"/>
<path d="M75.11 28.5483H1.62035C1.19061 28.5483 0.778464 28.3776 0.474588 28.0737C0.170713 27.7699 0 27.3577 0 26.928C0 26.4982 0.170713 26.0861 0.474588 25.7822C0.778464 25.4783 1.19061 25.3076 1.62035 25.3076H75.11C75.5398 25.3076 75.9519 25.4783 76.2558 25.7822C76.5597 26.0861 76.7304 26.4982 76.7304 26.928C76.7304 27.3577 76.5597 27.7699 76.2558 28.0737C75.9519 28.3776 75.5398 28.5483 75.11 28.5483Z" fill="#F9A826"/>
<path d="M60.9876 38.2988H1.62038C1.19064 38.2988 0.778493 38.1281 0.474618 37.8242C0.170744 37.5204 3.05176e-05 37.1082 3.05176e-05 36.6785C3.05176e-05 36.2487 0.170744 35.8366 0.474618 35.5327C0.778493 35.2288 1.19064 35.0581 1.62038 35.0581H60.9876C61.4173 35.0581 61.8295 35.2288 62.1333 35.5327C62.4372 35.8366 62.6079 36.2487 62.6079 36.6785C62.6079 37.1082 62.4372 37.5204 62.1333 37.8242C61.8295 38.1281 61.4173 38.2988 60.9876 38.2988Z" fill="#FF52EE"/>
<path d="M35.0972 48.0137H1.62038C1.19064 48.0137 0.778493 47.8429 0.474618 47.5391C0.170744 47.2352 3.05176e-05 46.8231 3.05176e-05 46.3933C3.05176e-05 45.9636 0.170744 45.5514 0.474618 45.2475C0.778493 44.9437 1.19064 44.7729 1.62038 44.7729H35.0972C35.5269 44.7729 35.939 44.9437 36.2429 45.2475C36.5468 45.5514 36.7175 45.9636 36.7175 46.3933C36.7175 46.8231 36.5468 47.2352 36.2429 47.5391C35.939 47.8429 35.5269 48.0137 35.0972 48.0137Z" fill="#FF52EE"/>
<path d="M53.5903 57.7275H1.62035C1.19105 57.7269 0.779574 57.5558 0.476252 57.252C0.17293 56.9482 0.00256348 56.5365 0.00256348 56.1072C0.00256348 55.6779 0.17293 55.2661 0.476252 54.9623C0.779574 54.6585 1.19105 54.4875 1.62035 54.4868H53.5903C54.0196 54.4875 54.4311 54.6585 54.7344 54.9623C55.0377 55.2661 55.2081 55.6779 55.2081 56.1072C55.2081 56.5365 55.0377 56.9482 54.7344 57.252C54.4311 57.5558 54.0196 57.7269 53.5903 57.7275Z" fill="#FF52EE"/>
<path d="M200.056 216.256L195.88 216.256L193.894 200.149L200.057 200.149L200.056 216.256Z" fill="#9F616A"/>
<path d="M201.699 222.035L185.757 222.035V221.833C185.757 220.187 186.411 218.609 187.574 217.445C188.738 216.282 190.316 215.628 191.962 215.628H191.962L194.875 213.418L200.308 215.628L201.7 215.628L201.699 222.035Z" fill="#2F2E41"/>
<path d="M197.623 140.558L195.782 118.103L194.335 109.675L202.435 107.886L205.123 119.425L202.781 141.181C203.254 141.76 203.542 142.467 203.61 143.211C203.677 143.955 203.521 144.702 203.16 145.357C202.8 146.011 202.252 146.543 201.587 146.884C200.922 147.225 200.171 147.359 199.429 147.269C198.687 147.18 197.989 146.87 197.425 146.381C196.86 145.892 196.455 145.245 196.26 144.523C196.066 143.802 196.092 143.039 196.335 142.332C196.578 141.626 197.027 141.008 197.623 140.558Z" fill="#FFB6B6"/>
<path d="M177.875 216.256L173.699 216.256L171.713 200.149L177.876 200.149L177.875 216.256Z" fill="#9F616A"/>
<path d="M171.192 145.649L169.341 148.851C169.341 148.851 167.307 149.407 167.972 156.037C168.637 162.668 168.665 201.952 171.883 206.786L172.465 210.937L178.542 211.518L178.695 207.835L185.94 156.663C185.94 156.663 190.207 206.897 193.737 208.126L195.012 212.312L200.581 212.314L200.252 207.382L200.611 145.13L171.192 145.649Z" fill="#2F2E41"/>
<path d="M169.157 148.607L169.029 148.574C172.85 134.283 171.748 115.777 169.05 95.9052L169.05 95.8229L178.803 86.8896H187.272L195.668 92.3078C201.095 95.0216 202.329 100.769 202.341 100.826L202.349 100.867L199.023 112.476L201.529 146.047L201.532 146.086L201.517 146.122C200.707 148.178 198.534 147.885 196.018 147.546C193.507 147.208 184.252 150.304 181.414 150.304C175.868 150.304 169.553 148.709 169.157 148.607Z" fill="#973593"/>
<path d="M193.91 96.8323L197.549 95.2495L202.342 101.127L206.227 119.959L192.919 117.943L193.91 96.8323Z" fill="#973593"/>
<path d="M137.95 131.56L154.582 116.362L160.362 110.06L166.734 115.372L159.253 124.559L140.614 136.021C140.445 136.749 140.062 137.41 139.515 137.919C138.968 138.427 138.281 138.761 137.543 138.877C136.805 138.992 136.049 138.884 135.373 138.567C134.696 138.25 134.13 137.737 133.747 137.096C133.364 136.454 133.181 135.713 133.223 134.967C133.264 134.221 133.528 133.504 133.98 132.909C134.432 132.314 135.051 131.868 135.758 131.627C136.466 131.387 137.229 131.364 137.95 131.56Z" fill="#FFB6B6"/>
<path d="M154.22 116.527L158.826 110.545C158.865 110.459 162.687 101.918 165.999 98.2077C169.398 94.401 172.073 96.3477 172.1 96.3687L172.166 96.4189L172.351 110.476L159.596 125.717L154.22 116.527Z" fill="#973593"/>
<path d="M189.861 78.4751C190.548 74.2428 187.674 70.2549 183.442 69.5681C179.209 68.8813 175.221 71.7556 174.535 75.9879C173.848 80.2203 176.722 84.2081 180.954 84.895C185.187 85.5818 189.174 82.7075 189.861 78.4751Z" fill="#9F616A"/>
<path d="M175.1 76.0791C175.1 76.0791 175.038 73.3498 174.693 72.1421C174.348 70.9344 173.658 69.8992 174.003 69.8992C174.348 69.8992 174.521 69.0366 174.521 69.0366C174.521 69.0366 174.866 68.8641 175.038 69.0366C175.211 69.2091 175.383 67.8289 175.383 67.8289C175.383 67.8289 175.556 67.3113 175.728 67.6564C175.901 68.0015 175.901 67.8289 176.073 67.3113C176.246 66.7938 177.108 66.4487 177.108 66.4487C177.108 66.4487 180.386 66.6212 180.904 65.9311C181.422 65.241 187.287 65.7586 188.495 66.6212C189.703 67.4838 195.051 70.5893 194.188 73.1772C193.326 75.7651 190.843 81.7237 190.22 82.3211C189.236 83.2658 188.555 83.6064 183.899 84.5329C182.988 84.7142 178.337 81.7397 178.337 81.2221C178.337 80.7045 178.898 79.0632 177.996 78.8379C176.634 78.4972 176.481 80.2197 176.135 79.7022C175.79 79.1846 175.1 76.0791 175.1 76.0791Z" fill="#2F2E41"/>
<path d="M179.518 222.035L163.576 222.035V221.833C163.576 220.187 164.23 218.609 165.394 217.445C166.557 216.282 168.135 215.628 169.781 215.628H169.782L172.694 213.418L178.127 215.628L179.519 215.628L179.518 222.035Z" fill="#2F2E41"/>
<path d="M262.389 222.339H1.34216C1.2148 222.339 1.09267 222.289 1.00262 222.199C0.912565 222.109 0.861969 221.986 0.861969 221.859C0.861969 221.732 0.912565 221.61 1.00262 221.52C1.09267 221.429 1.2148 221.379 1.34216 221.379H262.389C262.517 221.379 262.639 221.429 262.729 221.52C262.819 221.61 262.87 221.732 262.87 221.859C262.87 221.986 262.819 222.109 262.729 222.199C262.639 222.289 262.517 222.339 262.389 222.339Z" fill="#CACACA"/>
</g>
<defs>
<clipPath id="clip0_18_397">
<rect width="262.87" height="222.339" fill="white"/>
</clipPath>
</defs>
</svg>
